<?xml version="1.0" encoding="UTF-8"?>
<!-- Generator: visioncortex VTracer 0.6.3 -->
<svg version="1.1" xmlns="http://www.w3.org/2000/svg" width="1280" height="1266">
<path d="M0 0 C290.4 0 580.8 0 880 0 C880.33 2.31 880.66 4.62 881 7 C883.12 8.66 883.12 8.66 885.81 9.5 C891.13 11.79 892.72 13.74 895 19 C895.92 21.39 895.92 21.39 899.31 22.31 C903 23.82 904.82 25.6 907 29 C907.27 29.84 907.54 30.68 907.82 31.55 C908.77 34.14 908.77 34.14 911.1 35.12 C912.35 35.49 912.35 35.49 913.62 35.88 C918.33 37.56 921.32 39.66 924.93 43.07 C927.24 45.22 929.65 47.17 932.12 49.12 C932.97 49.8 933.81 50.47 934.68 51.16 C936.04 52.24 937.39 53.31 938.76 54.37 C941.5 56.56 943.78 58.86 946 61.56 C947.92 63.89 949.29 65.19 951.88 66.88 C955.62 69.42 958.12 72.47 961.05 75.89 C963.41 78.44 966.11 80.09 969 82 C969.9 83.48 969.9 83.48 970.81 85 C973.47 88.65 975.72 89.38 979.81 91.01 C982.95 92.43 984.85 94.33 987 97 C987.25 97.85 987.5 98.69 987.75 99.56 C989.56 103.09 992.23 103.54 995.81 104.97 C999.48 106.7 1001.32 109.38 1002.86 113.04 C1004.26 115.45 1005.3 115.83 1007.88 116.81 C1012.58 118.96 1013.76 121.43 1016 126 C1018.16 128.58 1020.2 129.66 1023.31 130.88 C1028.65 133.15 1032.18 136.08 1036.19 140.31 C1039.69 143.66 1043.56 146.24 1047.57 148.94 C1050.25 151.21 1050.76 152.8 1052 156 C1053.86 157.21 1053.86 157.21 1056 158 C1060.15 160.67 1063.76 163.31 1066.44 167.5 C1068.91 171.33 1072.11 173.17 1075.95 175.53 C1078 177 1078 177 1079.94 180.06 C1082.21 183.3 1083.35 183.78 1086.88 185.31 C1091.98 187.6 1093.75 190.26 1096.5 195 C1098.63 197.85 1100.84 198.33 1104.17 199.26 C1107.35 200.54 1108.48 203.08 1110 206 C1110.33 206.99 1110.66 207.98 1111 209 C1112.73 210.06 1112.73 210.06 1114.81 210.88 C1118.59 212.66 1120.78 214.36 1123 218 C1123.37 219.66 1123.71 221.32 1124 223 C1124.68 223.18 1125.35 223.36 1126.05 223.55 C1127.38 223.93 1127.38 223.93 1128.75 224.31 C1129.63 224.56 1130.51 224.8 1131.42 225.05 C1134.09 226.03 1135.9 227.09 1138 229 C1138 229.66 1138 230.32 1138 231 C1138.84 231.37 1138.84 231.37 1139.69 231.75 C1142.42 233.23 1144.58 235.05 1147 237 C1147.73 237.48 1148.47 237.97 1149.23 238.46 C1155.01 242.27 1159.4 246.39 1163.9 251.64 C1166.23 254.26 1168.74 256.43 1171.45 258.63 C1173.03 260.02 1174.27 261.47 1175.56 263.12 C1178.13 266.15 1180.71 267.83 1184 270 C1188 274.42 1188 274.42 1188 277 C1188.58 277.16 1189.16 277.32 1189.76 277.48 C1195.29 279.13 1198.9 280.9 1203 285 C1203.45 285.85 1203.91 286.69 1204.38 287.56 C1206.18 290.27 1207.05 290.62 1209.94 291.88 C1214.61 293.98 1215.84 296.43 1218 301 C1220.11 304.17 1220.51 304.37 1223.81 305.62 C1227.49 307.32 1228.7 308.84 1230.38 312.5 C1232.28 316.45 1233.74 317.71 1237.88 319.19 C1238.74 319.47 1239.61 319.75 1240.5 320.04 C1245.2 321.84 1248.47 325.37 1251.86 328.99 C1254.19 331.18 1256.54 332.6 1259.31 334.19 C1264.9 337.64 1268.33 341.62 1272 347 C1273.6 348.8 1273.6 348.8 1280 349 C1280 651.61 1280 954.22 1280 1266 C857.6 1266 435.2 1266 0 1266 C0 848.22 0 430.44 0 0 Z M101 97 C99.53 99.93 99.86 102.88 99.87 106.1 C99.87 106.84 99.87 107.59 99.87 108.35 C99.86 110.88 99.86 113.4 99.87 115.93 C99.86 117.75 99.86 119.58 99.86 121.4 C99.85 126.46 99.85 131.51 99.85 136.57 C99.85 142.05 99.85 147.54 99.84 153.02 C99.83 163.92 99.83 174.81 99.83 185.71 C99.82 198.08 99.82 210.46 99.81 222.83 C99.79 255.03 99.77 287.23 99.77 319.42 C99.76 329.86 99.76 340.3 99.76 350.74 C99.76 351.47 99.76 352.21 99.75 352.97 C99.75 355.95 99.75 358.92 99.75 361.9 C99.73 412.83 99.72 463.77 99.71 514.7 C99.71 518.7 99.71 522.7 99.71 526.7 C99.71 527.5 99.71 528.29 99.71 529.11 C99.71 537.15 99.71 545.2 99.71 553.24 C99.7 554.85 99.7 556.46 99.7 558.08 C99.7 609.88 99.67 661.69 99.64 713.5 C99.62 750.72 99.6 787.94 99.59 825.16 C99.59 825.92 99.59 826.69 99.59 827.48 C99.59 844.27 99.58 861.06 99.58 877.85 C99.58 884.6 99.58 891.36 99.58 898.12 C99.58 898.86 99.58 899.59 99.58 900.36 C99.58 924.2 99.57 948.04 99.54 971.88 C99.52 995.89 99.52 1019.89 99.53 1043.9 C99.53 1058.8 99.53 1073.71 99.5 1088.61 C99.49 1098.1 99.49 1107.6 99.5 1117.09 C99.51 1122.51 99.51 1127.93 99.49 1133.35 C99.48 1138.27 99.48 1143.2 99.5 1148.12 C99.5 1149.9 99.5 1151.67 99.49 1153.45 C99.47 1155.85 99.49 1158.25 99.5 1160.65 C99.49 1161.35 99.48 1162.04 99.47 1162.76 C99.52 1165.82 99.81 1167.71 101.53 1170.27 C107.27 1174.29 112.77 1175.37 119.74 1175.38 C120.86 1175.39 120.86 1175.39 121.99 1175.39 C124.47 1175.41 126.95 1175.4 129.43 1175.39 C131.23 1175.39 133.04 1175.4 134.84 1175.4 C139.82 1175.42 144.79 1175.41 149.76 1175.4 C155.17 1175.4 160.58 1175.41 165.98 1175.42 C175.46 1175.44 184.94 1175.44 194.42 1175.44 C208.52 1175.43 222.62 1175.45 236.71 1175.46 C263.35 1175.49 290 1175.5 316.64 1175.5 C319.57 1175.5 322.51 1175.5 325.45 1175.5 C326.54 1175.5 326.54 1175.5 327.66 1175.5 C343.82 1175.5 359.98 1175.51 376.14 1175.52 C382.79 1175.52 389.44 1175.52 396.09 1175.53 C397.2 1175.53 397.2 1175.53 398.32 1175.53 C440.45 1175.55 482.57 1175.56 524.7 1175.56 C526.28 1175.56 527.85 1175.56 529.43 1175.56 C536.55 1175.56 543.67 1175.56 550.78 1175.56 C553.96 1175.56 557.13 1175.56 560.31 1175.56 C561.89 1175.56 563.48 1175.56 565.07 1175.56 C615.31 1175.55 665.55 1175.58 715.79 1175.62 C728.45 1175.63 741.11 1175.64 753.76 1175.65 C754.54 1175.65 755.32 1175.65 756.13 1175.65 C780.15 1175.67 804.17 1175.68 828.19 1175.68 C828.94 1175.68 829.7 1175.68 830.47 1175.68 C847.03 1175.69 863.58 1175.69 880.14 1175.69 C886.06 1175.69 891.99 1175.69 897.91 1175.69 C899.38 1175.69 900.86 1175.69 902.33 1175.69 C925.81 1175.69 949.3 1175.7 972.78 1175.73 C997.09 1175.76 1021.39 1175.76 1045.7 1175.74 C1059.72 1175.73 1073.74 1175.73 1087.75 1175.76 C1097.11 1175.78 1106.47 1175.78 1115.83 1175.76 C1121.16 1175.74 1126.5 1175.74 1131.83 1175.77 C1136.69 1175.79 1141.54 1175.78 1146.4 1175.75 C1148.14 1175.75 1149.89 1175.75 1151.63 1175.77 C1161.83 1175.86 1170.36 1175.12 1179 1169 C1180.2 1166.59 1180.13 1165.11 1180.13 1162.42 C1180.13 1161.44 1180.13 1160.47 1180.13 1159.47 C1180.13 1158.39 1180.13 1157.31 1180.13 1156.2 C1180.13 1155.06 1180.13 1153.91 1180.13 1152.73 C1180.13 1149.54 1180.13 1146.34 1180.13 1143.14 C1180.13 1139.67 1180.13 1136.2 1180.13 1132.73 C1180.14 1126.65 1180.14 1120.56 1180.13 1114.47 C1180.13 1105.42 1180.13 1096.36 1180.13 1087.31 C1180.14 1071.14 1180.14 1054.98 1180.14 1038.81 C1180.13 1024.67 1180.13 1010.52 1180.13 996.37 C1180.13 995.44 1180.13 994.5 1180.13 993.54 C1180.13 989.73 1180.13 985.93 1180.14 982.13 C1180.14 946.43 1180.14 910.73 1180.13 875.03 C1180.13 843.28 1180.13 811.53 1180.13 779.78 C1180.14 744.15 1180.14 708.51 1180.13 672.88 C1180.13 669.08 1180.13 665.29 1180.13 661.49 C1180.13 660.56 1180.13 659.62 1180.13 658.66 C1180.13 644.52 1180.13 630.38 1180.14 616.24 C1180.14 600.17 1180.14 584.09 1180.13 568.02 C1180.13 559.02 1180.13 550.01 1180.13 541.01 C1180.14 535.01 1180.13 529 1180.13 523 C1180.13 519.57 1180.13 516.14 1180.13 512.71 C1180.13 509.03 1180.13 505.35 1180.13 501.67 C1180.13 500.59 1180.13 499.51 1180.13 498.4 C1180.13 496.94 1180.13 496.94 1180.13 495.46 C1180.13 494.61 1180.13 493.77 1180.13 492.9 C1180.21 490.99 1180.21 490.99 1179 490 C1173.71 489.18 1168.54 488.85 1163.18 488.87 C1162.43 488.87 1161.69 488.87 1160.92 488.86 C1158.42 488.86 1155.92 488.86 1153.43 488.86 C1151.61 488.86 1149.8 488.86 1147.99 488.85 C1143.02 488.85 1138.05 488.84 1133.07 488.84 C1127.71 488.84 1122.34 488.83 1116.98 488.83 C1107.69 488.82 1098.39 488.81 1089.1 488.8 C1074.41 488.79 1059.72 488.77 1045.03 488.75 C1040.01 488.74 1034.98 488.73 1029.96 488.73 C1028.7 488.72 1027.44 488.72 1026.15 488.72 C1011.86 488.7 997.57 488.68 983.27 488.66 C981.32 488.66 981.32 488.66 979.32 488.66 C958.13 488.63 936.95 488.61 915.77 488.6 C894.03 488.58 872.28 488.55 850.53 488.51 C837.12 488.49 823.7 488.47 810.29 488.47 C801.1 488.47 791.91 488.46 782.72 488.43 C777.42 488.42 772.12 488.42 766.81 488.42 C761.96 488.43 757.11 488.42 752.25 488.4 C750.49 488.39 748.74 488.39 746.98 488.4 C744.59 488.41 742.21 488.4 739.82 488.38 C739.14 488.39 738.46 488.4 737.75 488.4 C731.33 488.32 726.12 486.61 721.04 482.75 C717.24 477.53 718.34 470.15 718.41 463.98 C718.41 462.42 718.4 460.86 718.4 459.31 C718.39 455.02 718.41 450.74 718.44 446.46 C718.46 441.85 718.46 437.23 718.45 432.61 C718.45 424.61 718.47 416.61 718.5 408.61 C718.54 397.03 718.55 385.45 718.54 373.87 C718.54 355.08 718.55 336.28 718.58 317.49 C718.58 316.36 718.58 315.24 718.59 314.08 C718.6 301.53 718.63 288.98 718.65 276.43 C718.66 271.88 718.67 267.32 718.68 262.77 C718.68 261.65 718.69 260.53 718.69 259.37 C718.72 240.65 718.74 221.93 718.72 203.2 C718.72 191.65 718.74 180.11 718.79 168.56 C718.82 160.64 718.82 152.73 718.81 144.82 C718.8 140.25 718.81 135.69 718.84 131.12 C718.88 126.94 718.88 122.76 718.85 118.58 C718.85 117.07 718.86 115.56 718.88 114.04 C719.09 104.43 719.09 104.43 714.63 96.17 C711.27 92.95 708.59 90.75 703.83 90.74 C702.97 90.74 702.11 90.73 701.23 90.73 C699.82 90.73 699.82 90.73 698.37 90.74 C696.87 90.73 696.87 90.73 695.33 90.72 C691.93 90.71 688.53 90.72 685.13 90.72 C682.68 90.71 680.23 90.71 677.79 90.7 C671.74 90.69 665.7 90.68 659.65 90.68 C652.42 90.68 645.18 90.67 637.94 90.65 C620.44 90.62 602.95 90.61 585.45 90.6 C577.17 90.59 568.9 90.59 560.62 90.58 C532.29 90.55 503.97 90.53 475.64 90.52 C473.86 90.52 472.08 90.52 470.3 90.52 C468.52 90.52 466.74 90.52 464.95 90.52 C461.38 90.52 457.8 90.52 454.22 90.52 C453.33 90.52 452.45 90.52 451.53 90.52 C422.78 90.51 394.02 90.48 365.27 90.43 C334.87 90.38 304.48 90.36 274.08 90.35 C270.74 90.35 267.41 90.35 264.07 90.35 C263.25 90.35 262.43 90.35 261.58 90.35 C248.36 90.35 235.13 90.33 221.91 90.3 C208.62 90.27 195.33 90.26 182.03 90.28 C174.14 90.29 166.24 90.28 158.34 90.25 C152.45 90.23 146.55 90.24 140.65 90.26 C138.26 90.26 135.88 90.26 133.49 90.24 C116.24 89.77 116.24 89.77 101 97 Z M828 96 C826.19 99.11 825.75 101.36 825.75 104.94 C825.74 105.94 825.74 106.93 825.73 107.96 C825.74 109.06 825.74 110.16 825.75 111.28 C825.74 112.45 825.74 113.62 825.74 114.82 C825.73 118.05 825.73 121.29 825.74 124.53 C825.74 128.02 825.74 131.51 825.73 135 C825.72 141.84 825.72 148.67 825.73 155.51 C825.73 161.07 825.73 166.63 825.73 172.19 C825.73 172.98 825.73 173.77 825.73 174.59 C825.73 176.2 825.73 177.8 825.73 179.41 C825.72 194.48 825.73 209.56 825.74 224.63 C825.75 237.56 825.75 250.49 825.74 263.42 C825.73 278.44 825.72 293.45 825.73 308.47 C825.73 310.07 825.73 311.67 825.73 313.27 C825.73 314.06 825.73 314.85 825.73 315.66 C825.74 321.21 825.73 326.76 825.73 332.31 C825.72 339.08 825.72 345.85 825.73 352.61 C825.74 356.07 825.74 359.52 825.73 362.97 C825.73 366.72 825.74 370.46 825.75 374.21 C825.74 375.29 825.74 376.38 825.73 377.5 C825.76 383.35 826.31 388.39 828 394 C869.46 394.09 910.92 394.16 952.39 394.2 C957.28 394.21 962.17 394.21 967.06 394.22 C968.04 394.22 969.01 394.22 970.01 394.22 C985.8 394.24 1001.58 394.27 1017.36 394.31 C1033.55 394.35 1049.73 394.37 1065.92 394.38 C1075.91 394.38 1085.9 394.4 1095.9 394.43 C1102.74 394.45 1109.59 394.46 1116.44 394.45 C1120.39 394.45 1124.34 394.46 1128.3 394.48 C1131.92 394.5 1135.53 394.5 1139.15 394.48 C1141.08 394.48 1143.02 394.5 1144.95 394.52 C1146.09 394.51 1147.24 394.5 1148.42 394.49 C1149.9 394.49 1149.9 394.49 1151.41 394.5 C1154.75 393.86 1155.93 392.65 1158 390 C1158.8 386.86 1158.8 386.86 1159 384 C1158.41 383.55 1157.82 383.11 1157.21 382.64 C1151.56 378.32 1146.59 373.93 1142.06 368.44 C1140.03 366.01 1138.52 364.68 1135.81 362.88 C1133 361 1133 361 1131.56 358.5 C1129.43 355.09 1126.46 353.8 1123 352 C1119.45 349.91 1117.37 348.62 1115.25 345.06 C1112.83 341.77 1111.63 341.2 1108 339.62 C1103.19 337.46 1101.93 335.63 1100.05 330.85 C1098.39 327.93 1095.9 327.25 1092.9 325.99 C1089.27 324.1 1087.64 320.6 1086.17 316.92 C1084.65 314.43 1083.42 314.15 1080.69 313.25 C1076.96 311.76 1075.44 310.64 1073.62 307.06 C1070.67 301.5 1065.58 300.25 1060 298 C1055.2 295.33 1052.32 292.1 1048.86 287.95 C1046.96 285.96 1045.19 284.74 1042.81 283.38 C1038.98 281.18 1037.39 278.74 1035 275 C1030.65 270.14 1030.65 270.14 1025 268 C1024.77 267.26 1024.55 266.51 1024.31 265.75 C1022.08 261.08 1018.59 259.23 1014 257.25 C1010.64 255.67 1009.31 254.26 1007.56 251 C1005.2 246.64 1002.54 245.57 998.02 243.86 C994.46 242.35 993.4 239.85 991.81 236.5 C989.87 233.81 989.07 233.47 986.12 232.25 C982.45 230.62 981.23 229.1 979.5 225.5 C977.35 221.05 975.34 219.75 970.86 217.89 C967.44 216.25 965.55 213.44 964.22 209.96 C962.52 207.23 960.86 206.98 957.81 206.06 C949.7 203.32 945.25 199.49 939.83 192.98 C937.96 190.96 936.06 189.46 933.81 187.88 C931.1 185.96 929.92 184.87 928.06 182 C925.56 178.36 922.81 176.82 919.11 174.51 C916.27 172.48 914.78 169.97 913 167 C910.77 164.99 908.91 163.96 906.12 162.81 C902.99 160.99 902.18 160.03 900.25 157.12 C897.84 153.61 895.78 152.18 891.88 150.5 C887.11 148.41 885.91 146.58 884.06 141.86 C882.38 138.91 879.86 138.14 876.83 136.86 C874.36 135.7 873.3 134.38 872 132 C871.75 131.18 871.49 130.36 871.23 129.52 C869.66 126.32 868.4 125.95 865.12 124.69 C860.31 122.52 860.31 122.52 858.84 120.05 C858.58 119.35 858.33 118.65 858.06 117.94 C856.93 115.07 856.42 114.21 853.61 112.81 C851.68 112.18 849.75 111.57 847.82 110.98 C841.16 108.66 836.55 103.9 832.32 98.42 C830.95 96.72 830.95 96.72 828 96 Z " fill="#B9B9B9" transform="translate(0,0)"/>
<path d="M0 0 C0.94 -0 1.88 -0.01 2.86 -0.01 C3.89 -0.01 4.92 -0 5.99 0 C7.65 -0 7.65 -0 9.34 -0.01 C13.07 -0.01 16.8 -0.01 20.53 0 C23.22 0 25.91 -0 28.6 -0.01 C34.47 -0.01 40.33 -0.01 46.2 -0 C54.92 0.01 63.64 0.01 72.36 0 C87.03 -0 101.71 -0 116.38 0.01 C130.92 0.02 145.45 0.02 159.99 0.02 C160.9 0.02 161.8 0.02 162.73 0.02 C166.4 0.02 170.07 0.02 173.73 0.02 C208.16 0.02 242.59 0.03 277.02 0.05 C307.62 0.06 338.21 0.06 368.8 0.06 C370.76 0.06 372.73 0.06 374.69 0.06 C375.66 0.06 376.63 0.06 377.63 0.06 C382.52 0.06 387.41 0.06 392.29 0.06 C393.26 0.06 394.22 0.06 395.21 0.06 C420.77 0.06 446.32 0.07 471.87 0.07 C473.23 0.07 473.23 0.07 474.63 0.07 C478.28 0.08 481.94 0.08 485.59 0.08 C498.31 0.08 511.03 0.08 523.75 0.08 C540.15 0.08 556.54 0.09 572.94 0.1 C581.61 0.1 590.28 0.1 598.95 0.1 C604.75 0.1 610.54 0.11 616.33 0.11 C619.63 0.11 622.93 0.12 626.24 0.11 C629.79 0.11 633.35 0.12 636.91 0.12 C637.93 0.12 638.95 0.12 640 0.11 C644.62 0.13 649.22 0.23 653.82 0.55 C654.61 0.61 655.39 0.66 656.2 0.72 C660.23 1.72 662.26 4.84 664.33 8.25 C667.11 13.67 667.45 19.46 667.46 25.48 C667.46 27.3 667.46 27.3 667.47 29.15 C667.46 30.45 667.46 31.75 667.46 33.08 C667.46 34.44 667.46 35.8 667.46 37.16 C667.46 40.01 667.46 42.85 667.46 45.7 C667.45 49.32 667.46 52.95 667.46 56.57 C667.47 59.38 667.46 62.19 667.46 64.99 C667.46 66.97 667.46 68.95 667.47 70.93 C667.42 90.31 667.42 90.31 662.33 96.25 C657.53 100.27 652.3 99.67 646.36 99.63 C645.23 99.63 644.11 99.64 642.95 99.64 C639.15 99.65 635.36 99.64 631.56 99.63 C628.82 99.63 626.08 99.64 623.34 99.64 C617.37 99.66 611.4 99.66 605.44 99.65 C596.56 99.64 587.68 99.64 578.81 99.65 C562.96 99.67 547.1 99.67 531.25 99.66 C517.38 99.65 503.51 99.65 489.64 99.65 C488.26 99.65 488.26 99.65 486.85 99.65 C483.12 99.65 479.39 99.65 475.66 99.65 C440.63 99.66 405.61 99.66 370.59 99.64 C339.46 99.63 308.33 99.63 277.2 99.64 C242.24 99.66 207.28 99.66 172.33 99.65 C168.6 99.65 164.88 99.65 161.15 99.65 C160.23 99.65 159.32 99.65 158.37 99.65 C144.51 99.65 130.64 99.65 116.78 99.66 C101.02 99.67 85.26 99.66 69.49 99.65 C60.67 99.64 51.84 99.64 43.02 99.65 C37.13 99.66 31.24 99.65 25.34 99.64 C21.99 99.63 18.63 99.63 15.27 99.64 C11.65 99.65 8.04 99.64 4.42 99.63 C3.37 99.63 2.33 99.64 1.25 99.65 C-5.32 99.6 -9.84 98.84 -14.86 94.25 C-19.97 85.79 -20.15 76.17 -20.18 66.54 C-20.19 65.26 -20.2 63.98 -20.21 62.65 C-20.22 59.95 -20.23 57.25 -20.23 54.55 C-20.23 51.81 -20.25 49.08 -20.29 46.34 C-20.74 15.74 -20.74 15.74 -13.67 6.25 C-9.36 2.37 -5.87 -0 0 0 Z " fill="#B9B9B9" transform="translate(279.67234241962433,940.7504523396492)"/>
<path d="M0 0 C1.13 -0 2.25 -0.01 3.41 -0.01 C7.2 -0.02 10.99 -0.01 14.77 -0.01 C17.51 -0.01 20.25 -0.01 22.98 -0.02 C28.94 -0.03 34.9 -0.03 40.85 -0.02 C49.71 -0.02 58.57 -0.03 67.43 -0.03 C84.17 -0.05 100.91 -0.05 117.65 -0.05 C130.58 -0.05 143.5 -0.05 156.43 -0.05 C158.28 -0.05 160.14 -0.05 162 -0.05 C164.79 -0.05 167.59 -0.06 170.39 -0.06 C196.39 -0.07 222.39 -0.07 248.4 -0.07 C249.87 -0.06 249.87 -0.06 251.37 -0.06 C256.34 -0.06 261.31 -0.06 266.28 -0.06 C267.76 -0.06 267.76 -0.06 269.27 -0.06 C271.27 -0.06 273.26 -0.06 275.26 -0.06 C306.33 -0.06 337.4 -0.06 368.47 -0.08 C403.36 -0.1 438.26 -0.11 473.15 -0.11 C476.87 -0.11 480.59 -0.11 484.31 -0.11 C485.22 -0.11 486.14 -0.11 487.08 -0.11 C500.92 -0.11 514.76 -0.11 528.6 -0.12 C544.33 -0.14 560.06 -0.14 575.79 -0.13 C584.6 -0.12 593.4 -0.12 602.21 -0.13 C608.09 -0.14 613.97 -0.14 619.85 -0.13 C623.2 -0.12 626.55 -0.12 629.91 -0.13 C633.51 -0.14 637.12 -0.13 640.73 -0.12 C641.77 -0.13 642.82 -0.13 643.9 -0.14 C649.29 -0.1 653.16 0.19 657.8 3.25 C662 7.74 661.93 12.18 661.96 18.13 C661.97 18.81 661.97 19.5 661.98 20.2 C661.99 22.46 662 24.71 662 26.97 C662.01 28.54 662.02 30.11 662.02 31.68 C662.03 34.97 662.04 38.27 662.04 41.56 C662.05 45.77 662.07 49.99 662.1 54.2 C662.12 57.44 662.12 60.69 662.12 63.94 C662.13 65.49 662.14 67.04 662.15 68.59 C662.17 70.77 662.16 72.94 662.16 75.12 C662.16 76.36 662.16 77.59 662.17 78.86 C661.68 83.33 660.16 86.61 657.3 90.07 C654.44 92.33 651.67 92.38 648.17 92.38 C647.21 92.39 646.25 92.39 645.27 92.39 C644.21 92.39 643.15 92.39 642.06 92.39 C640.94 92.39 639.81 92.39 638.66 92.39 C634.85 92.4 631.04 92.4 627.23 92.39 C624.49 92.4 621.75 92.4 619.01 92.4 C612.24 92.41 605.47 92.41 598.7 92.41 C590.6 92.42 582.49 92.42 574.39 92.43 C554.8 92.44 535.21 92.45 515.62 92.46 C506.36 92.46 497.1 92.46 487.83 92.47 C456.14 92.48 424.44 92.49 392.75 92.49 C390.76 92.49 388.77 92.49 386.78 92.49 C384.78 92.49 382.79 92.49 380.79 92.49 C376.79 92.49 372.79 92.49 368.79 92.49 C367.79 92.49 366.8 92.49 365.78 92.5 C333.59 92.5 301.39 92.51 269.2 92.54 C235.19 92.56 201.17 92.58 167.15 92.58 C163.42 92.58 159.69 92.58 155.95 92.58 C155.04 92.58 154.12 92.58 153.17 92.58 C138.36 92.58 123.55 92.59 108.75 92.6 C93.87 92.62 79 92.62 64.12 92.61 C55.28 92.61 46.43 92.61 37.59 92.63 C31.69 92.64 25.78 92.64 19.88 92.63 C16.52 92.62 13.15 92.62 9.78 92.63 C6.16 92.65 2.54 92.64 -1.08 92.63 C-2.13 92.63 -3.18 92.64 -4.27 92.65 C-11.48 92.6 -16.73 91.28 -22.02 86.05 C-26.94 80.08 -26.21 72.81 -26.13 65.48 C-26.13 63.94 -26.14 62.4 -26.15 60.87 C-26.16 57.66 -26.14 54.45 -26.11 51.24 C-26.07 47.14 -26.09 43.05 -26.14 38.96 C-26.16 35.79 -26.15 32.62 -26.14 29.45 C-26.13 27.94 -26.14 26.43 -26.15 24.93 C-26.22 16.72 -25.84 10.37 -20.38 3.86 C-14.39 -0.55 -7.11 -0.03 0 0 Z " fill="#B9B9B9" transform="translate(285.1988916397095,734.7455244064331)"/>
</svg>
