<?xml version="1.0" encoding="UTF-8"?>
<!-- Generator: visioncortex VTracer 0.6.3 -->
<svg version="1.1" xmlns="http://www.w3.org/2000/svg" width="1280" height="1280">
<path d="M0 0 C10.89 0 21.78 0 33 0 C33 2.31 33 4.62 33 7 C34.22 7.24 35.44 7.48 36.69 7.73 C38.32 8.07 39.94 8.41 41.56 8.75 C42.36 8.91 43.16 9.06 43.99 9.23 C49.35 10.37 53.49 11.84 58 15 C58.69 16.28 58.69 16.28 59.39 17.59 C61.93 21.38 65.52 21.61 69.81 22.56 C75.58 23.89 80.36 25.07 85 29 C85.27 29.86 85.55 30.73 85.83 31.62 C86.73 34.11 86.73 34.11 88.72 34.71 C91.03 35.26 93.34 35.68 95.69 36.06 C101.93 37.13 106.77 38.31 112 42 C112.46 42.85 112.92 43.71 113.39 44.59 C115.93 48.38 119.52 48.61 123.81 49.56 C129.58 50.89 134.36 52.07 139 56 C139.31 56.88 139.61 57.75 139.93 58.65 C140.28 59.43 140.64 60.2 141 61 C144.27 62.12 144.27 62.12 148.12 62.56 C159.52 64.45 159.52 64.45 164 68 C165.01 69.48 165.01 69.48 166.04 70.98 C170.08 75.99 176.73 75.95 182.72 76.9 C189.01 78.07 192.69 79.74 197.18 84.35 C201.24 88.04 206.88 89.39 212.06 90.88 C213.09 91.19 214.12 91.5 215.19 91.81 C216.13 92.07 217.07 92.32 218.04 92.58 C220.98 93.99 222.13 95.09 224.27 97.45 C228.18 101.58 232.07 102.7 237.5 104 C244.12 105.59 247.61 107.3 252.18 112.35 C255.42 115.29 259.34 116.04 263.5 117.06 C270.15 118.73 275.43 120.63 280 126 C280 126.66 280 127.32 280 128 C280.56 128.15 281.11 128.29 281.69 128.45 C291.86 131.44 297.22 136.66 303.04 145.41 C304.89 148.09 304.89 148.09 307.49 149.9 C313.63 155.04 314.9 161.65 316.25 169.19 C316.42 170.08 316.6 170.97 316.77 171.88 C317.5 175.7 318 179.09 318 183 C320.31 183 322.62 183 325 183 C325 229.2 325 275.4 325 323 C322.69 323 320.38 323 318 323 C317.68 328.79 317.37 334.58 317.06 340.38 C317.02 341.25 316.97 342.12 316.92 343.03 C316.31 354.74 315.83 366.44 315.55 378.16 C315.15 394.77 313.83 410.51 310.56 426.81 C310.36 427.85 310.15 428.88 309.94 429.95 C308.36 437.42 308.36 437.42 306.44 440.54 C304.08 444.58 303.95 449.02 303.44 453.62 C303.25 455.15 303.25 455.15 303.06 456.71 C302.47 461.56 301.95 466.41 301.51 471.28 C300.4 483.51 298.43 494.51 292.15 505.29 C288.5 513.88 288.23 523.89 287.32 533.08 C286.46 540.72 285.14 548.45 279.9 554.37 C276.75 558.73 276.48 563.84 275.62 569.06 C273.75 579.44 271.34 587.44 265.49 596.28 C263.91 599.17 263.31 601.48 262.75 604.71 C262.56 605.79 262.36 606.87 262.15 607.98 C261.76 610.24 261.37 612.49 260.98 614.74 C259.6 622.28 258.24 628.07 252.38 633.38 C248.51 637.65 248.35 642.47 247.58 648.04 C246.05 658.6 246.05 658.6 242 663 C240.74 663.35 240.74 663.35 239.46 663.7 C236.65 664.82 236.65 664.82 236 668.2 C235.72 670.14 235.72 670.14 235.44 672.12 C233.55 683.52 233.55 683.52 230 688 C228.52 689.01 228.52 689.01 227.02 690.04 C222.01 694.08 222.05 700.73 221.1 706.72 C219.91 713.08 218.16 716.64 213.64 721.27 C211.56 723.47 210.44 725.71 209.31 728.5 C208.72 729.9 208.72 729.9 208.11 731.32 C207.74 732.2 207.38 733.09 207 734 C206.37 735.47 205.73 736.93 205.06 738.38 C204.81 738.96 204.55 739.55 204.29 740.15 C203 742 203 742 200.04 744.17 C196.07 747.35 195.41 751.13 194.38 755.94 C193.05 761.77 191.78 766.28 188 771 C187.15 771.41 186.31 771.83 185.44 772.25 C182.02 774.71 181.84 777.33 180.8 781.3 C179.23 786.58 176.96 791.53 172.49 794.88 C169.53 797.4 168.77 799.36 167.5 803 C165.82 807.81 164.25 810.14 160 813 C159.27 813.3 158.54 813.61 157.79 813.92 C155.76 814.9 155.76 814.9 155.06 817.39 C154.85 818.33 154.65 819.28 154.44 820.25 C152.83 826.77 151.4 830.98 146.06 835.25 C141.97 838.61 140.57 841.83 138.86 846.76 C137.76 849.63 136.52 851.24 134 853 C132.34 853.37 130.67 853.71 129 854 C128.85 854.76 128.71 855.52 128.55 856.31 C127.01 863.44 125.01 869.54 120 875 C119.35 875.3 118.69 875.6 118.02 875.91 C115.16 877.45 114.27 879.51 112.69 882.31 C110.55 885.85 108.96 888.4 105.38 890.5 C101.1 893.08 100.02 896.99 98.19 901.46 C96.7 904.64 95.02 906.25 92 908 C91.01 908.33 90.02 908.66 89 909 C87.94 910.73 87.94 910.73 87.12 912.81 C85.34 916.6 83.6 918.72 80 921 C79.13 921.23 78.27 921.45 77.38 921.69 C74.42 923.32 74.36 924.23 73.38 927.38 C73.15 928.18 72.92 928.98 72.68 929.8 C71.89 932.34 70.89 934.11 69 936 C68.34 936 67.68 936 67 936 C66.73 936.64 66.46 937.28 66.19 937.94 C65 940 65 940 62 941 C61.29 942.65 60.63 944.32 60 946 C56.31 951.64 51.94 956.09 46.78 960.38 C44.35 962.6 42.78 965.24 41 968 C38.57 970.12 36.04 971.97 33.44 973.88 C30.87 975.91 30.87 975.91 29.25 978.81 C26.64 982.51 23.72 984.6 20.11 987.27 C17.41 989.48 15.83 992.06 14 995 C11.75 997 11.75 997 9 999 C4.31 1002.42 0.06 1005.83 -4 1010 C-5.38 1011.28 -6.78 1012.55 -8.19 1013.81 C-8.86 1014.42 -9.54 1015.02 -10.23 1015.64 C-12 1017 -12 1017 -14 1017 C-14.27 1017.64 -14.54 1018.28 -14.81 1018.94 C-16 1021 -16 1021 -19 1022 C-19.25 1022.6 -19.5 1023.2 -19.75 1023.81 C-21.62 1027.08 -24.54 1028.63 -28 1030 C-29.32 1030 -30.64 1030 -32 1030 C-32.23 1030.89 -32.45 1031.77 -32.69 1032.69 C-34.23 1036.57 -35.78 1038.35 -39 1041 C-40.15 1041.43 -41.31 1041.87 -42.5 1042.31 C-46.18 1044.09 -46.49 1044.45 -48.25 1047.81 C-50.91 1052.67 -54.65 1054.19 -59.5 1056.57 C-62.76 1058.44 -64 1060.86 -66 1064 C-68.23 1065.44 -70.53 1066.64 -72.89 1067.85 C-75.42 1069.23 -77.11 1070.84 -79 1073 C-85.22 1079.91 -92.01 1082.42 -101 1084 C-101.04 1084.72 -101.08 1085.44 -101.12 1086.19 C-102.33 1090.07 -104.66 1091.91 -108 1094 C-109.53 1094.67 -111.07 1095.32 -112.62 1095.94 C-117.06 1097.77 -118.43 1099.94 -121 1104 C-124.86 1107.09 -129.13 1109.09 -133.69 1110.94 C-137.45 1112.51 -138.92 1114.15 -141.3 1117.5 C-143.86 1119.76 -146.7 1120.41 -149.94 1121.44 C-155.49 1123.23 -158.3 1124.68 -161.67 1129.36 C-165.37 1133.91 -171.16 1135.06 -176.62 1136.25 C-180.81 1137.29 -182.52 1138.12 -184.75 1141.81 C-188.67 1148.13 -196.24 1149.87 -203 1152 C-203.66 1152 -204.32 1152 -205 1152 C-205 1152.66 -205 1153.32 -205 1154 C-210.19 1160.09 -216.49 1161.71 -223.97 1163.54 C-229.6 1165.09 -232.31 1167.08 -236.19 1171.37 C-239.4 1174.27 -243.26 1174.94 -247.38 1175.94 C-254.31 1177.84 -259.19 1179.76 -264.11 1185.27 C-268.96 1189.72 -276 1189.59 -282.25 1190.21 C-287.41 1190.77 -287.41 1190.77 -292 1193 C-292.7 1193.95 -293.4 1194.9 -294.12 1195.88 C-300.62 1203.9 -313.44 1204.43 -323 1206 C-323 1206.66 -323 1207.32 -323 1208 C-330.71 1214.25 -339.7 1216.16 -349.32 1217.45 C-355.7 1218.31 -358.68 1218.95 -363 1224 C-369.92 1228.29 -376.69 1229.1 -384.69 1230.06 C-387.09 1230.36 -389.49 1230.66 -391.89 1230.97 C-392.94 1231.1 -393.99 1231.23 -395.08 1231.36 C-399.27 1232.28 -402.05 1234.13 -405.19 1237 C-413.43 1242.86 -424.65 1243.05 -434.44 1244.19 C-435.91 1244.37 -437.38 1244.54 -438.85 1244.72 C-449.42 1246 -449.42 1246 -453 1246 C-453.19 1246.58 -453.37 1247.15 -453.56 1247.75 C-456.06 1251.65 -459.93 1253.51 -464.34 1254.55 C-467.08 1254.97 -469.81 1255.28 -472.56 1255.56 C-473.59 1255.68 -474.62 1255.8 -475.67 1255.92 C-481.72 1256.61 -487.76 1257.15 -493.82 1257.64 C-495.15 1257.75 -496.49 1257.87 -497.82 1257.98 C-500.37 1258.2 -502.93 1258.39 -505.49 1258.56 C-513.06 1259.2 -518.28 1260.93 -524.92 1264.53 C-537.34 1270.47 -552.48 1269.65 -565.94 1270.06 C-569.18 1270.17 -572.43 1270.29 -575.67 1270.41 C-577.87 1270.49 -580.06 1270.57 -582.26 1270.64 C-593.2 1271.03 -604.13 1271.56 -615.06 1272.12 C-616.8 1272.21 -618.53 1272.3 -620.26 1272.39 C-624.18 1272.59 -628.09 1272.79 -632 1273 C-632 1275.31 -632 1277.62 -632 1280 C-678.2 1280 -724.4 1280 -772 1280 C-772 1277.69 -772 1275.38 -772 1273 C-773.13 1272.92 -774.27 1272.84 -775.44 1272.75 C-788.46 1271.24 -799.15 1269.02 -808.5 1259.44 C-810.72 1257.27 -812.2 1256.33 -814.88 1254.94 C-820.53 1251.58 -823.32 1245.83 -826 1240 C-826.34 1238.34 -826.68 1236.67 -827 1235 C-828.85 1233.95 -828.85 1233.95 -831 1233 C-835.76 1228.2 -836.83 1222.48 -838.45 1216.12 C-840.04 1210.49 -842.06 1207.71 -846.37 1203.81 C-849.27 1200.6 -849.94 1196.74 -850.94 1192.62 C-853.06 1184.8 -853.06 1184.8 -858 1178.5 C-862.9 1173.91 -864.12 1168.27 -865.66 1161.91 C-866.85 1157.39 -867.99 1154.68 -871.5 1151.51 C-876.29 1147.17 -877.13 1142.13 -878.59 1136.03 C-879.82 1131.5 -880.94 1128.73 -884.47 1125.56 C-889.54 1120.97 -890.52 1115.15 -892.24 1108.74 C-893.96 1102.87 -895.85 1099.84 -900.38 1095.78 C-903.8 1092.02 -904.44 1086.85 -905.59 1082.03 C-906.82 1077.5 -907.94 1074.73 -911.47 1071.56 C-916.54 1066.97 -917.52 1061.15 -919.24 1054.74 C-920.96 1048.87 -922.85 1045.84 -927.37 1041.78 C-930.3 1038.57 -931.05 1034.64 -932.06 1030.5 C-933.61 1024.34 -935.22 1020.32 -939.58 1015.65 C-944 1010.52 -944.93 1003.51 -946.19 997.06 C-946.36 996.19 -946.54 995.31 -946.72 994.41 C-947.16 992.28 -947.58 990.14 -948 988 C-950.31 988 -952.62 988 -955 988 C-955 977.11 -955 966.22 -955 955 C-952.69 954.67 -950.38 954.34 -948 954 C-944.74 951.93 -942.57 949.48 -940.19 946.5 C-935.99 941.49 -931.11 939.3 -924.75 938.25 C-921.02 937.47 -921.02 937.47 -920.03 935.31 C-919.77 934.63 -919.52 933.95 -919.25 933.25 C-917.1 927.84 -912.83 926.69 -907.76 924.43 C-904.23 922.6 -903.08 920.33 -901 917 C-896.94 914.09 -892.75 911.58 -888 910 C-887.77 909.26 -887.55 908.51 -887.31 907.75 C-885.31 903.56 -882.09 901.99 -878 900 C-876.07 899.33 -874.13 898.69 -872.19 898.06 C-867.84 896.65 -867.84 896.65 -865.12 893 C-864.75 892.01 -864.38 891.02 -864 890 C-861.01 886.92 -858.34 885.73 -854.31 884.56 C-851.98 883.91 -851.98 883.91 -850 883 C-848.68 880.6 -848.68 880.6 -848 878 C-845.37 875.52 -842.84 873.92 -839.62 872.25 C-836.58 870.59 -834.74 868.68 -832.56 866 C-828.15 860.7 -823.49 858.38 -816.75 857.25 C-813.02 856.47 -813.02 856.47 -812.03 854.31 C-811.77 853.63 -811.52 852.95 -811.25 852.25 C-809.1 846.84 -804.83 845.69 -799.76 843.43 C-796.23 841.6 -795.08 839.33 -793 836 C-791.43 834.98 -789.82 834.03 -788.19 833.12 C-784.53 831.09 -782.13 829.24 -779.56 825.94 C-774.95 820.22 -768.44 817.92 -761.5 816.06 C-757.98 814.57 -757.56 812.4 -756 809 C-753.29 806.37 -751.18 805.07 -747.62 803.75 C-743.51 802.14 -741.43 799.21 -738.69 795.86 C-736.46 793.41 -733.98 792.36 -731 791 C-728.44 788.63 -726.16 786.19 -723.94 783.5 C-719.22 779.48 -712.89 776.69 -706.75 775.6 C-704.84 775.15 -704.84 775.15 -703.91 773.26 C-703.49 772.2 -703.49 772.2 -703.06 771.12 C-701.31 767.31 -699.94 765.74 -696 764 C-694.24 763.35 -694.24 763.35 -692.44 762.69 C-688.85 761.29 -688.85 761.29 -687.19 758.19 C-684.92 754.88 -683.6 754.01 -680.19 752.12 C-676.51 750.08 -674.02 748.15 -671.38 744.88 C-666.9 739.39 -661.85 737.52 -655.19 735.62 C-651.71 734.54 -651.22 734.36 -649.25 731.06 C-648.84 730.05 -648.42 729.04 -648 728 C-645.29 725.37 -643.18 724.07 -639.62 722.75 C-635.51 721.14 -633.43 718.21 -630.69 714.86 C-628.46 712.41 -625.98 711.36 -623 710 C-620.41 707.6 -618.08 705.09 -615.75 702.44 C-610.34 697.64 -604.13 695.61 -597 695 C-596.66 693.39 -596.66 693.39 -596.31 691.75 C-594.77 687.33 -594.02 686.33 -590 684 C-586.96 682.93 -583.89 681.97 -580.81 681.02 C-577.64 679.87 -575.59 678.12 -573 676 C-570.31 676 -570.31 676 -568 677 C-567.69 677.64 -567.38 678.28 -567.06 678.94 C-566.15 681.27 -566.15 681.27 -563.44 681.94 C-562.3 682.29 -561.17 682.64 -560 683 C-555.41 685.07 -551.8 686.74 -549.06 691.06 C-546.36 694.92 -543.67 695.47 -539.34 697.01 C-536.15 698.36 -534.74 700.04 -533 703 C-532.77 703.84 -532.54 704.67 -532.3 705.53 C-531.19 708.27 -531.19 708.27 -528.17 709.22 C-527.04 709.5 -525.91 709.78 -524.75 710.06 C-517.04 712.19 -513.07 713.92 -509 721 C-506.45 723.35 -504.23 724.9 -501.06 726.31 C-498.12 727.93 -497.16 728.88 -495.19 731.44 C-492.28 735.09 -489.33 736.41 -485.05 738.11 C-482.35 739.28 -480.77 740.66 -479 743 C-478.75 743.83 -478.51 744.66 -478.25 745.51 C-477.21 748.22 -477.21 748.22 -474.46 749.15 C-473.44 749.41 -472.42 749.67 -471.38 749.94 C-464.12 752.1 -459.28 755.13 -454.56 761.06 C-452.12 763.86 -450.65 764.86 -447.44 766.5 C-444.12 768.19 -443.12 768.81 -441.06 772.06 C-438.36 775.92 -435.67 776.47 -431.35 778.01 C-428.14 779.36 -426.69 780.99 -425 784 C-424.63 785.66 -424.29 787.33 -424 789 C-423.23 789.16 -422.45 789.32 -421.66 789.48 C-414.09 791.18 -406.69 792.87 -402.25 799.69 C-401.84 800.45 -401.42 801.21 -401 802 C-397.79 804.1 -395.12 804.26 -391.34 804.27 C-390.22 804.27 -389.11 804.27 -387.96 804.28 C-386.78 804.27 -385.59 804.26 -384.38 804.25 C-383.17 804.24 -381.96 804.24 -380.72 804.23 C-373.61 804.15 -366.52 803.94 -359.44 803.25 C-358.7 803.19 -357.97 803.13 -357.21 803.06 C-354.97 802.85 -354.97 802.85 -352 802 C-351.69 801.38 -351.38 800.75 -351.06 800.11 C-348.94 795.88 -344.26 794.53 -340 793 C-334.99 791.91 -329.97 791.27 -324.88 790.69 C-323.52 790.52 -322.17 790.35 -320.82 790.18 C-317.55 789.77 -314.28 789.38 -311 789 C-310.72 788.22 -310.45 787.44 -310.16 786.64 C-308.52 782.91 -306.57 781.91 -303 780 C-299.27 778.81 -295.46 777.99 -291.63 777.2 C-286.18 775.88 -283.74 774.09 -280.36 769.64 C-278.43 767.31 -276.34 766.36 -273.56 765.25 C-272.62 764.85 -271.67 764.46 -270.69 764.05 C-269.08 763.42 -267.46 762.8 -265.84 762.2 C-261.53 760.56 -260.15 759.01 -258 755 C-255.25 752.4 -253.14 751.05 -249.56 749.75 C-245.39 747.7 -244.14 745.65 -241.6 741.91 C-239.83 739.8 -238.52 739.09 -236 738.06 C-231.51 736.16 -230.01 733.25 -227.57 729.16 C-225.86 726.8 -224.42 725.82 -221.88 724.44 C-217.87 722.25 -216.84 720.08 -215.12 715.97 C-213.75 713.57 -212.29 712.58 -210 711.06 C-205.87 708.29 -204.78 705.61 -203.07 701.06 C-201.22 697.5 -198.62 696.54 -195 695 C-194.34 695 -193.68 695 -193 695 C-192.91 694.41 -192.83 693.81 -192.74 693.2 C-191.29 684.66 -188.78 675.81 -182 670 C-181.34 670 -180.68 670 -180 670 C-179.85 669.27 -179.71 668.55 -179.55 667.8 C-177.76 659.74 -175.37 649.91 -169 644.21 C-166.56 641.51 -166.14 639.64 -165.44 636.09 C-165.08 634.36 -165.08 634.36 -164.71 632.59 C-164.48 631.38 -164.24 630.18 -164 628.94 C-159.7 607.35 -159.7 607.35 -154 600 C-150.49 590.87 -150.71 581.07 -150.69 571.44 C-150.68 570.2 -150.68 568.96 -150.67 567.69 C-150.61 560.1 -150.61 560.1 -153 553 C-153.76 552.73 -154.53 552.46 -155.31 552.19 C-159.54 550.32 -161.13 547.12 -163 543 C-164.22 539.04 -165.17 535.06 -166 531 C-167.07 530.77 -168.14 530.55 -169.25 530.31 C-173.54 528.81 -174.67 527.83 -177 524 C-177.48 522.65 -177.93 521.3 -178.38 519.94 C-179.49 516.68 -179.79 516.14 -182.81 514.12 C-186.16 511.9 -186.98 510.61 -188.88 507.19 C-190.91 503.53 -192.78 501.09 -196.06 498.5 C-201.61 494 -204.43 487.97 -205.94 481.06 C-206.72 477.75 -206.72 477.75 -209.88 476.31 C-210.91 475.88 -211.94 475.45 -213 475 C-216.16 472.58 -217.38 470.23 -218.81 466.62 C-220.59 462.31 -222.75 460.2 -226.4 457.4 C-228.75 455.35 -229.69 452.79 -231 450 C-233.4 447.41 -235.94 445.06 -238.56 442.69 C-242.59 438.25 -244.79 433.65 -245.75 427.75 C-246.57 424.03 -246.57 424.03 -248.79 422.75 C-250.22 422.09 -251.65 421.45 -253.1 420.84 C-255.71 419.68 -256.67 418.52 -258 416 C-258.66 414.01 -259.31 412.02 -259.86 410 C-260.96 407.71 -260.96 407.71 -263.86 406.16 C-267.56 403.61 -268.86 401.35 -270.88 397.38 C-271.47 396.23 -272.07 395.08 -272.68 393.9 C-274 391 -274 391 -274 389 C-274.96 388.66 -274.96 388.66 -275.94 388.31 C-278 387 -278 387 -279 384.69 C-279 382 -279 382 -277.31 379.94 C-274.9 376.88 -274.13 374.69 -273 371 C-270.44 362.95 -270.44 362.95 -267 360 C-263.25 358.69 -263.25 358.69 -260 358 C-259.93 357.39 -259.85 356.79 -259.77 356.16 C-258.69 349.26 -256.45 343.47 -252 338 C-250.77 337.28 -250.77 337.28 -249.51 336.55 C-246.44 334.66 -245.39 332.8 -243.62 329.69 C-241.48 326.12 -239.63 323.4 -236.31 320.88 C-232.73 318.13 -231.58 315.18 -229.96 311.05 C-228.28 307.45 -225.56 305.61 -221.93 304.19 C-219.82 303.15 -219.82 303.15 -219.13 300.9 C-218.94 300.07 -218.76 299.23 -218.56 298.38 C-216.45 290.54 -213.08 285.68 -206.76 280.71 C-203.97 278 -202.34 274.7 -200.55 271.27 C-199 269 -199 269 -196.45 267.47 C-193.59 265.75 -193.1 264.71 -192 261.62 C-190.32 257.48 -188.55 254.85 -185 252 C-184.16 251.74 -183.33 251.49 -182.47 251.23 C-179.77 250.2 -179.77 250.2 -178.78 247.43 C-178.5 246.4 -178.22 245.37 -177.94 244.31 C-175.47 236.12 -173.38 231.76 -166 227 C-163.96 224.26 -162.28 221.53 -160.69 218.5 C-159.07 216.1 -157.75 214.94 -155.5 213.19 C-152.06 210.4 -151.09 208.04 -149.81 203.9 C-148.37 200.53 -145.98 199.05 -143 197 C-142.01 196.67 -141.02 196.34 -140 196 C-138.66 193.19 -138.66 193.19 -137.56 189.81 C-135.2 183.39 -133.04 178.56 -127.62 174.25 C-123.81 171.18 -121.79 167.58 -119.55 163.27 C-118 161 -118 161 -115.5 159.57 C-112.25 157.53 -111.63 155.58 -110.19 152.06 C-107.72 146.71 -106.12 145.11 -100.75 143.1 C-97.67 141.16 -97.48 137.98 -96.7 134.6 C-94.8 127.53 -90.49 123.55 -85 119 C-83.88 117.31 -82.94 115.57 -82 113.78 C-80.32 110.79 -78.36 108.48 -76 106 C-75.32 105.87 -74.64 105.73 -73.93 105.6 C-72.98 105.3 -72.98 105.3 -72 105 C-71.04 103.11 -71.04 103.11 -70.56 100.81 C-69.17 96.08 -67.54 93.45 -64 90 C-63.17 89.75 -62.35 89.49 -61.5 89.23 C-58.74 88.18 -58.74 88.18 -57.56 85.17 C-57.19 84.04 -56.82 82.91 -56.44 81.75 C-53.25 72.75 -53.25 72.75 -50 69 C-48.35 68.29 -46.68 67.62 -45 67 C-43.96 65.2 -43.96 65.2 -43 63 C-42.08 61.3 -41.15 59.61 -40.19 57.94 C-39.71 57.08 -39.23 56.22 -38.73 55.34 C-37 53 -37 53 -34.48 51.56 C-31.24 49.52 -30.62 47.56 -29.19 44.06 C-26.72 38.71 -25.12 37.11 -19.75 35.1 C-16.67 33.16 -16.48 29.98 -15.7 26.6 C-13.83 19.62 -9.52 15.32 -4 11 C-0.37 7.25 -0.85 5.93 0 0 Z M35 140 C33.08 142.72 31.79 145.41 30.43 148.45 C28.84 151.29 27.82 152 24.94 153.38 C19.75 156.05 18.92 160.64 17.14 165.9 C15.21 171.15 12.41 173.94 7.94 177.31 C4.64 180.33 3.49 182.8 1.96 186.91 C0.56 189.95 -0.96 191.55 -4.03 192.88 C-6.73 194.42 -7.28 196.12 -8.5 198.94 C-10.15 202.73 -11.47 204.79 -15 207 C-16.04 207.39 -16.04 207.39 -17.09 207.8 C-20.02 209.64 -20.41 212.03 -21.5 215.25 C-25.6 226.55 -25.6 226.55 -31 229.81 C-34.65 232.47 -35.38 234.72 -37 238.82 C-38.74 242.62 -41.53 245.11 -45.06 247.25 C-48.23 250.11 -49.58 254.03 -51 258 C-51 258.66 -51 259.32 -51 260 C-51.56 260.23 -52.11 260.45 -52.69 260.69 C-59.17 264.37 -61.46 269.54 -64.47 276.16 C-66.66 280.22 -68.6 282.53 -73 284 C-74.1 285.62 -74.1 285.62 -74.94 287.62 C-75.28 288.34 -75.62 289.06 -75.97 289.8 C-76.31 290.53 -76.65 291.25 -77 292 C-80.12 298.61 -80.12 298.61 -84 300.31 C-87.53 302.3 -87.58 303 -88.81 306.69 C-90.28 310.94 -91.77 312.98 -95.31 315.75 C-99.98 319.49 -102.07 323.74 -104.47 329.06 C-106.87 334.2 -109.21 336.15 -114 339 C-116.04 341.77 -117.06 344.17 -118.19 347.44 C-120.01 351.01 -120.77 351.76 -123.94 353.88 C-128.04 356.67 -129.17 359.22 -130.87 363.78 C-132.22 366.43 -133.73 367.68 -136.06 369.5 C-140.44 373.01 -142.1 376.49 -143 382 C-143 385.63 -142.37 386.61 -139.88 389.25 C-138.93 390.16 -137.98 391.06 -137 392 C-133.45 396.14 -130.23 400.19 -128 405.19 C-126.61 408.23 -125.23 409.8 -122.56 411.81 C-119.27 414.36 -118.01 416.79 -116.44 420.62 C-114.4 425.59 -112.87 427.73 -108 430 C-107.34 430 -106.68 430 -106 430 C-105.73 430.89 -105.73 430.89 -105.45 431.79 C-103.27 439.75 -103.27 439.75 -97.65 445.24 C-94.29 447.47 -92.99 449.83 -91 453.31 C-87.82 458.72 -84.77 463.65 -79.94 467.75 C-77.85 470.17 -77.27 471.94 -76.25 474.94 C-74.82 478.82 -73.83 480.51 -70.12 482.38 C-65.04 485 -63.76 489.1 -61.5 494.14 C-59.71 497.56 -57.76 499.18 -54.73 501.44 C-51.24 504.59 -49.25 508.92 -47 513 C-45.29 515.97 -43.73 518.3 -41.44 520.88 C-36.47 527.24 -36.71 533.87 -36.81 541.62 C-36.83 543.14 -36.83 543.14 -36.84 544.68 C-36.87 547.79 -36.93 550.89 -37 554 C-37.02 554.93 -37.04 555.87 -37.06 556.83 C-37.29 566.24 -37.87 575.51 -39.38 584.81 C-39.49 585.52 -39.6 586.23 -39.72 586.97 C-40.83 593.21 -42.99 598.8 -45.62 604.55 C-47.08 608.19 -47.64 611.29 -48.06 615.19 C-48.18 616.2 -48.18 616.2 -48.3 617.23 C-48.74 621.21 -49.11 625.19 -49.46 629.17 C-49.54 630.05 -49.62 630.92 -49.7 631.82 C-49.85 633.52 -50 635.21 -50.13 636.91 C-50.75 643.93 -51.85 651.58 -57.06 656.75 C-61.87 661.59 -62.28 666.73 -62.81 673.31 C-63.44 679.64 -64.16 685.39 -69 690 C-69.66 690.28 -70.32 690.55 -71 690.84 C-73.12 691.82 -73.12 691.82 -73.85 693.78 C-74.01 694.49 -74.18 695.2 -74.34 695.92 C-74.54 696.7 -74.73 697.48 -74.93 698.28 C-75.21 699.5 -75.21 699.5 -75.5 700.75 C-77.1 707.6 -78.54 713.53 -84.59 717.85 C-88.01 720.9 -88.53 724.08 -89.56 728.44 C-90.87 733.83 -91.94 737.96 -96 742 C-96.7 742.31 -97.39 742.63 -98.11 742.95 C-100.99 744.55 -101.24 746.75 -102.25 749.81 C-104.78 756.41 -104.78 756.41 -108.94 758.31 C-113.42 760.52 -114.62 764.02 -116.25 768.5 C-116.47 769.15 -116.69 769.81 -116.92 770.48 C-119.39 777.73 -122.77 780.85 -129 785 C-130.38 786.63 -131.71 788.3 -133 790 C-135.44 792.51 -137.93 794.94 -140.5 797.31 C-142.62 799.59 -143.74 801.27 -145.19 803.94 C-147.81 808.37 -151.2 810.09 -155.64 812.5 C-158.61 814.39 -160.03 816.46 -161.86 819.41 C-163.71 821.99 -166.34 823.34 -169 825 C-171.51 827.39 -173.87 829.86 -176.19 832.44 C-179.41 835.37 -182.81 837.35 -186.57 839.52 C-190.45 841.88 -193.75 844.6 -196.79 848 C-199.39 850.36 -201.7 851.21 -205 852.38 C-210.28 854.44 -212.01 856.16 -215 861 C-219.59 863.91 -224.56 865.15 -229.81 866.31 C-233.54 867.15 -233.54 867.15 -236.23 869.6 C-236.79 870.83 -237.34 872.06 -237.88 873.29 C-241.24 878.42 -249.83 879.21 -255.38 880.44 C-260.41 881.61 -261.93 882.81 -265 887 C-271.76 891.16 -280.08 892.15 -287.78 893.43 C-293.34 894.42 -297.24 895.95 -302 899 C-312.96 905.19 -324.52 905.68 -336.87 906.77 C-343.23 907.39 -348.3 908.11 -354 911 C-359.31 913.24 -364.5 914.71 -370.19 915.62 C-371.35 915.81 -371.35 915.81 -372.53 916 C-381.98 917.43 -391.45 917.77 -401 918 C-402 918.03 -403 918.07 -404.03 918.1 C-407.1 918.19 -410.17 918.26 -413.25 918.31 C-414.19 918.34 -415.13 918.37 -416.1 918.4 C-422.4 918.46 -427.67 917.55 -433 914 C-434.74 911.38 -434.74 911.38 -436 909 C-438.42 907.73 -438.42 907.73 -441.19 907 C-447.98 904.75 -453.42 902.23 -457.88 896.5 C-460.28 893.44 -462.52 892.09 -466.06 890.5 C-470.49 888.51 -472.25 886.64 -474.72 882.56 C-476.72 880.12 -479.19 879.64 -482.14 878.74 C-485.07 877.58 -486.35 875.61 -488 873 C-488.25 872.34 -488.49 871.68 -488.75 871 C-490.54 868.14 -492.56 867.66 -495.69 866.5 C-507.99 861.65 -507.99 861.65 -510.78 857.09 C-513.37 853.48 -515.51 852.37 -519.5 850.5 C-524.8 848.02 -526.84 845.85 -530 841 C-532.4 839.54 -532.4 839.54 -535 838.62 C-539.7 836.52 -539.7 836.52 -541.12 834.05 C-541.37 833.35 -541.62 832.66 -541.88 831.94 C-543.07 828.89 -543.65 828.16 -546.69 826.74 C-548.81 826.08 -550.95 825.45 -553.09 824.85 C-559.26 823.05 -562.72 819.49 -566.41 814.49 C-568.57 812.47 -570.08 812.22 -573 812 C-579.51 813.4 -583.48 816.1 -587.37 821.35 C-589.43 823.44 -591.29 824.02 -594.06 824.94 C-597.69 826.13 -597.69 826.13 -600.26 828.77 C-600.59 829.45 -600.91 830.12 -601.25 830.81 C-603.77 835.76 -608.12 837.43 -613.01 839.48 C-617.35 841.36 -618.64 843.05 -621 847 C-623.32 848.72 -625.83 850.07 -628.38 851.44 C-632.41 853.61 -635.83 855.51 -638.7 859.15 C-640.97 861.96 -642.19 862.95 -645.5 864.19 C-646.66 864.66 -646.66 864.66 -647.85 865.14 C-648.56 865.43 -649.27 865.71 -650 866 C-653.51 867.68 -654.69 868.27 -656.23 871.88 C-658.43 875.76 -660.37 876.63 -664.38 878.5 C-668.28 880.33 -670.67 881.61 -673.45 884.94 C-676.44 888.53 -679.39 890.25 -683.44 892.44 C-688.49 895.29 -692.12 897.77 -695.55 902.52 C-697.5 904.51 -699.44 905.06 -702.06 905.94 C-705.95 907.28 -707.52 908.19 -709.38 911.88 C-711.97 916.91 -715.99 918.3 -721.06 920.38 C-724.07 922.04 -725.55 923.79 -727.63 926.48 C-730.56 929.73 -734.67 931.51 -738.47 933.57 C-743.07 936.16 -745.75 938.85 -749 943 C-752.14 944.84 -755.11 946.04 -758.56 947.19 C-762.14 949.07 -762.47 949.48 -764.19 952.81 C-766.92 957.81 -770.94 959.28 -776.06 961.38 C-779.08 963.04 -780.56 964.8 -782.64 967.49 C-785.06 970.18 -788.15 971.7 -791.31 973.38 C-791.96 973.73 -792.6 974.08 -793.27 974.45 C-794.84 975.31 -796.42 976.16 -798 977 C-798 977.66 -798 978.32 -798 979 C-798.66 979 -799.32 979 -800 979 C-800.66 979.91 -801.32 980.82 -802 981.75 C-804.37 984.81 -806.46 985.66 -810.12 986.81 C-813.84 988.11 -813.84 988.11 -816.28 991.04 C-817.06 993.37 -817.6 995.57 -818 998 C-818.33 999.39 -818.33 999.39 -818.66 1000.82 C-819.07 1004.67 -818.39 1007.88 -817.38 1011.56 C-816.89 1013.48 -816.89 1013.48 -816.4 1015.44 C-814.84 1019.4 -813.09 1021.14 -810 1024 C-806.37 1028.67 -804.88 1033.07 -803.44 1038.69 C-801.93 1044.53 -800.61 1047.8 -796 1051.69 C-792.07 1056.24 -791 1061.97 -789.62 1067.69 C-788.37 1072.45 -786.8 1074.76 -783 1078 C-778.72 1083.47 -777.5 1088.93 -776.02 1095.54 C-774.74 1100.7 -773.53 1102.9 -769 1106 C-765.27 1111.64 -764.08 1118.45 -762.81 1124.98 C-761.62 1129.42 -759.81 1132.23 -756.5 1135.38 C-753.02 1139.03 -751.51 1142.7 -750.43 1147.54 C-748.74 1155.09 -745.7 1160.66 -740 1166 C-735.69 1168.25 -731.57 1168.28 -726.82 1168.26 C-726.01 1168.26 -725.19 1168.27 -724.36 1168.27 C-721.66 1168.28 -718.97 1168.27 -716.27 1168.27 C-714.37 1168.27 -712.46 1168.27 -710.56 1168.27 C-706.55 1168.27 -702.53 1168.27 -698.52 1168.26 C-693.49 1168.25 -688.46 1168.26 -683.42 1168.27 C-665.14 1168.3 -646.85 1168.27 -628.59 1167.4 C-627.13 1167.33 -625.67 1167.27 -624.21 1167.22 C-615.83 1166.89 -609.18 1165.68 -601.56 1162.15 C-598.44 1160.75 -595.52 1160.13 -592.13 1159.71 C-590.91 1159.55 -589.7 1159.4 -588.44 1159.24 C-586.52 1159.03 -586.52 1159.03 -584.56 1158.81 C-583.19 1158.65 -581.81 1158.48 -580.43 1158.32 C-567.91 1156.89 -555.35 1156.22 -542.76 1155.77 C-525.46 1155.11 -525.46 1155.11 -510 1148 C-502.78 1145.49 -495.38 1144.33 -487.81 1143.44 C-486.32 1143.25 -486.32 1143.25 -484.79 1143.05 C-480.29 1142.48 -475.8 1141.96 -471.27 1141.61 C-463.59 1140.97 -459 1139.89 -453.22 1134.68 C-447.52 1130.38 -439.59 1130.21 -432.71 1129.27 C-431.31 1129.07 -431.31 1129.07 -429.89 1128.88 C-428.04 1128.63 -426.19 1128.4 -424.33 1128.18 C-418.2 1127.4 -413.48 1126.15 -408.69 1122 C-401.41 1116.58 -391.54 1115.91 -382.82 1114.54 C-376.21 1113.43 -371.77 1112.08 -367.19 1107 C-361.8 1102.2 -353.88 1102.02 -347 1101 C-342.42 1100.29 -339.71 1099.86 -336.62 1096.12 C-336.24 1095.6 -335.85 1095.07 -335.45 1094.52 C-331.2 1090.08 -323.94 1088.96 -318.19 1087.56 C-313.47 1086.34 -311.21 1084.76 -308 1081 C-302.5 1076.79 -297.22 1075.66 -290.56 1074.22 C-286.48 1072.82 -284.89 1071.14 -282 1068 C-276.73 1063.9 -271.55 1062.55 -265.19 1061.02 C-260.1 1059.67 -257.61 1057.99 -254 1054 C-249.16 1050.31 -244.29 1048.65 -238.48 1047.2 C-234.59 1046.06 -232.67 1044.9 -230.59 1041.55 C-227.72 1037.02 -224.08 1036.09 -219.12 1034.56 C-212.62 1032.33 -208.67 1030.53 -204.63 1024.77 C-202.48 1022.44 -200.51 1021.92 -197.5 1021 C-193.38 1019.73 -191.37 1018.72 -188.81 1015.25 C-185.06 1010.32 -180.25 1008.46 -174.77 1005.94 C-170.18 1003.77 -167.41 1001.8 -164.49 997.58 C-162.42 995.38 -160.16 994.62 -157.38 993.5 C-152.63 991.57 -151.2 990.27 -149.22 985.7 C-146.95 982.54 -143.19 981.58 -139.66 980.24 C-136.75 978.88 -135.13 977.38 -133 975 C-129.29 971.08 -125.33 967.91 -120.99 964.75 C-118.92 962.93 -118.16 961.45 -117 959 C-115.35 958.29 -113.68 957.63 -112 957 C-111.24 956.36 -110.47 955.72 -109.69 955.06 C-107.2 953.15 -105.78 952.52 -102.88 951.62 C-99.49 950.47 -99.09 950.14 -97 946.94 C-95.89 944.2 -95.89 944.2 -96 942 C-95.3 941.73 -94.6 941.46 -93.88 941.19 C-92.93 940.8 -91.98 940.4 -91 940 C-90.01 939.65 -89.02 939.3 -88 938.94 C-84.79 936.86 -84.29 935.94 -82.69 932.62 C-80.32 927.86 -77.75 926.53 -73.06 924.31 C-70.62 922.76 -70.07 921.64 -69 919 C-67.52 915.33 -66.12 914.25 -62.56 912.56 C-58.76 910.74 -57.3 909.32 -55.5 905.5 C-53.25 900.75 -50.69 899.51 -46.06 897.31 C-43.07 895.41 -42.44 893.1 -41.16 889.91 C-39.27 886.8 -36.28 885.88 -33.09 884.34 C-30.64 882.77 -30.07 881.66 -29 879 C-27.52 875.33 -26.12 874.25 -22.56 872.56 C-17.29 870.02 -15.1 866.37 -13 861 C-13 860.34 -13 859.68 -13 859 C-10.35 857.92 -7.72 856.91 -5 856 C-3.7 853.45 -3.7 853.45 -2.62 850.38 C0.65 842.16 4.33 837.39 11.08 831.77 C12.96 830.04 14.28 828.36 15.69 826.25 C18 823 18 823 20.56 821.62 C25.04 818.64 26.35 813.03 27.94 808.06 C29 806 29 806 31.44 804.81 C32.28 804.54 33.13 804.28 34 804 C37.34 801.77 37.31 801.61 38.12 798 C39.74 792.65 42.91 789.59 46.72 785.62 C49.72 782.17 51.66 778.46 53.73 774.41 C55.75 770.57 57.81 767.75 61.5 765.44 C64.94 762.08 65.66 758.51 67.04 753.98 C68.57 749.22 70.29 745.26 74.41 742.21 C78.29 738.89 79.87 734.73 82.06 730.19 C84 727 84 727 87.05 724.56 C90.51 721.56 91.57 718.78 92.75 714.5 C93.14 713.2 93.53 711.9 93.92 710.59 C94.28 709.41 94.63 708.22 95 707 C95.99 704.09 95.99 704.09 97 702 C97.78 701.69 98.57 701.38 99.38 701.06 C103 699.6 104.47 697.46 106 694 C106.84 690.95 107.56 687.9 108.19 684.8 C109.03 681.91 110.14 680.32 112 678 C112 677.34 112 676.68 112 676 C112.6 675.77 113.2 675.55 113.81 675.31 C117.38 673.17 118.7 670.11 119.77 666.17 C120.07 664.69 120.07 664.69 120.38 663.19 C122.2 655.43 125.43 650.57 131 645 C133.45 640.02 133.98 634.67 134.77 629.24 C135.46 624.89 136.24 621.57 139 618 C139.84 617.46 140.67 616.91 141.53 616.36 C145.36 612.71 145.59 608.39 146.5 603.31 C148.29 593.48 150.86 586.14 158 579 C159.94 574.24 160.43 569.74 160.88 564.69 C161.71 556.64 163.16 550.09 168.62 543.88 C173.34 538.16 173.5 530.81 174.38 523.69 C175.53 515.06 176.8 507.39 182.03 500.22 C184.21 496.66 185.02 493.5 185.62 489.44 C185.75 488.71 185.87 487.98 185.99 487.23 C186.79 482.2 187.26 477.18 187.66 472.12 C188.55 460.86 189.92 449.52 196.04 439.74 C201.03 431.2 200.43 420.16 200.89 410.53 C201.08 406.63 201.29 402.74 201.51 398.84 C201.55 398.07 201.59 397.3 201.63 396.51 C202.42 382.21 203.67 368.08 205.94 353.94 C206.1 352.93 206.25 351.92 206.42 350.89 C206.58 349.94 206.74 349 206.9 348.03 C207.04 347.2 207.18 346.37 207.32 345.52 C208 343 208 343 209.47 340.5 C211.5 335.85 211.81 331.56 212.17 326.54 C212.25 325.53 212.33 324.51 212.41 323.47 C213.19 312.77 213.29 302.09 213.27 291.37 C213.27 289.3 213.27 287.24 213.27 285.18 C213.27 280.91 213.27 276.65 213.26 272.38 C213.25 266.91 213.26 261.45 213.27 255.99 C213.28 251.75 213.27 247.52 213.27 243.28 C213.27 241.27 213.27 239.25 213.27 237.23 C213.28 234.43 213.27 231.63 213.26 228.83 C213.26 228.01 213.27 227.18 213.27 226.33 C213.23 221.05 212.8 217.08 209.21 212.94 C203.2 207.82 197.54 205.53 189.98 203.72 C184.49 202.38 180.97 200.41 177.31 195.94 C173.72 192.93 169.47 192.21 165 191 C159.84 189.58 156.52 187.7 152.5 184.12 C147.6 179.97 142.83 178.3 136.71 176.72 C131.29 175.3 126.92 173.26 123.25 168.94 C119.71 165.89 115.45 165.2 111 164 C105.8 162.57 102.45 160.64 98.38 157.06 C93.36 152.82 88.58 151.48 82.28 149.93 C75.83 148.1 71.66 144.66 67 140 C63.39 138.36 59.72 137.33 55.88 136.38 C54.84 136.11 53.81 135.85 52.74 135.59 C46.2 134.19 40.55 136.55 35 140 Z " fill="#B9B9B9" transform="translate(955,0)"/>
</svg>
