<?xml version="1.0" encoding="UTF-8"?>
<!-- Generator: visioncortex VTracer 0.6.3 -->
<svg version="1.1" xmlns="http://www.w3.org/2000/svg" width="1280" height="1280">
<path d="M0 0 C31.02 0 62.04 0 94 0 C94 2.31 94 4.62 94 7 C94.65 7.18 95.3 7.36 95.98 7.55 C108.65 11.19 108.65 11.19 111.88 15.5 C113 18 113 18 113 21 C113.59 21.15 114.18 21.29 114.79 21.45 C120.74 23.13 123.56 24.84 127 30 C127.33 30.99 127.66 31.98 128 33 C130.55 34.48 130.55 34.48 133.62 35.81 C140.03 38.88 144.52 42.39 149.38 47.5 C151.69 49.7 153.75 51.15 156.44 52.81 C160.48 55.41 162.78 58.13 165.46 62.05 C167.65 64.82 170.32 66.57 173.2 68.57 C175 70 175 70 176.94 73.06 C179.47 76.66 182.03 77.81 185.88 79.78 C188.66 81.38 190.2 83.38 192 86 C194.11 88.39 196.03 89.61 198.94 90.88 C202.63 92.65 204.75 94.49 207 98 C207.33 98.99 207.66 99.98 208 101 C209.73 102.06 209.73 102.06 211.81 102.88 C215.6 104.66 217.72 106.4 220 110 C220.26 110.83 220.52 111.65 220.79 112.5 C222.34 115.7 223.7 116.17 226.94 117.5 C230.23 119.01 231.81 119.76 234.12 122.62 C235 125 235 125 235 128 C235.62 128.14 236.23 128.27 236.87 128.41 C246.33 130.82 252.29 136.11 259 143 C261.65 145.18 264.35 147.27 267.06 149.38 C270 152 270 152 271.88 154.94 C273.88 157.83 275.31 159.09 278.12 161.06 C281.49 163.43 282.68 165.05 284 169 C285.81 170.07 285.81 170.07 288 171 C296.82 175.21 296.82 175.21 299.44 179.5 C301.49 182.83 303.49 183.89 307.06 185.44 C311.88 187.58 313.02 189.39 314.88 194.16 C316.38 196.62 317.82 197.02 320.5 198 C324.26 199.38 325.76 200.52 327.56 204.12 C328.47 206.27 329 207.67 329 210 C329.72 210.1 330.44 210.21 331.19 210.31 C334.46 211.11 336.32 211.93 339 214 C339.76 215.3 340.48 216.61 341.19 217.94 C343.79 222.43 346.59 223.28 351.37 224.88 C356.84 227.21 360.89 231.79 364.95 236.04 C367.15 238.15 369.44 239.71 372 241.38 C376.09 244.17 378.43 246.72 381 251 C382.63 252.38 384.3 253.71 386 255 C388.5 257.44 390.91 259.9 393.25 262.5 C395.73 264.75 397.62 265.9 400.56 267.38 C403.8 269.06 405.42 270.17 406.94 273.5 C408.57 277.02 410.42 277.9 413.94 279.44 C418.75 281.56 420.33 283.59 422.72 288.15 C424.64 290.93 427.1 291.72 430.14 293.01 C433.73 294.92 435.37 298.41 436.83 302.07 C438.35 304.58 439.63 304.89 442.38 305.81 C447.44 307.86 448.88 310.03 451 315 C451 315.66 451 316.32 451 317 C452.31 317.15 452.31 317.15 453.65 317.3 C461.9 319.02 467.85 324.66 473 331 C474.6 332.14 476.23 333.24 477.88 334.31 C482.37 337.31 485.15 340.5 488.27 344.86 C490.59 347.73 493.33 349.57 496.35 351.66 C498.53 353.44 499.06 355.4 500 358 C502.28 359.21 502.28 359.21 505 360 C510.09 362.29 513.75 364.44 516.25 369.56 C518.19 372.27 518.89 372.5 521.94 373.5 C525.93 374.81 527.8 376.3 530 380 C530.75 382.81 530.75 382.81 531 385 C532.05 385.23 533.1 385.45 534.19 385.69 C538.21 386.85 540.37 388.69 543 392 C543.37 393.52 543.37 393.52 543.75 395.06 C545.25 398.59 545.95 398.68 549.38 400.06 C550.18 400.37 550.98 400.68 551.8 401 C554.82 402.38 556.28 404.21 558 407 C558.33 407.99 558.66 408.98 559 410 C561.55 411.3 561.55 411.3 564.62 412.38 C570.83 414.84 576.13 417.03 579.81 422.88 C582.03 426.04 583.69 427.29 586.88 429.38 C591.12 432.19 593.67 434.91 596.5 439.09 C598.66 441.85 601.34 443.58 604.2 445.57 C606 447 606 447 607.88 450.06 C610.59 453.82 613.46 454.95 617.66 456.73 C621.36 458.74 622.69 461.07 624 465 C626.19 466.29 626.19 466.29 628.81 467.38 C633.69 469.69 636.71 471.92 638.85 477.03 C640.26 479.45 641.38 479.93 643.94 481 C647.26 482.54 649.2 483.7 651 487 C651.25 487.82 651.51 488.64 651.77 489.48 C653.34 492.68 654.6 493.05 657.88 494.31 C662.69 496.48 662.69 496.48 664.16 498.95 C664.42 499.65 664.67 500.35 664.94 501.06 C666.07 503.93 666.58 504.79 669.39 506.19 C671.32 506.82 673.25 507.43 675.19 508.02 C682.2 510.46 686.72 515.62 691.34 521.2 C693.07 523.24 693.07 523.24 696.12 525 C702.19 529.22 704.83 536.15 707 543 C707 544.32 707 545.64 707 547 C709.31 547 711.62 547 714 547 C714 783.61 714 1020.22 714 1264 C711.69 1264 709.38 1264 707 1264 C706.77 1264.74 706.55 1265.48 706.31 1266.25 C704.74 1269.54 703 1270.97 700 1273 C699.34 1273 698.68 1273 698 1273 C698 1275.31 698 1277.62 698 1280 C536.96 1280 375.92 1280 210 1280 C210 1277.69 210 1275.38 210 1273 C208.92 1272.94 208.92 1272.94 207.81 1272.88 C203.83 1271.64 202.39 1269.32 200 1266 C198.81 1262.44 198.87 1259.61 198.87 1255.85 C198.87 1254.74 198.87 1254.74 198.86 1253.61 C198.86 1251.12 198.86 1248.63 198.86 1246.15 C198.86 1244.35 198.86 1242.56 198.85 1240.76 C198.85 1235.81 198.84 1230.87 198.84 1225.92 C198.84 1220.59 198.83 1215.26 198.83 1209.93 C198.82 1200.69 198.81 1191.45 198.8 1182.21 C198.79 1167.62 198.77 1153.03 198.75 1138.43 C198.74 1133.44 198.73 1128.45 198.73 1123.46 C198.72 1122.22 198.72 1120.97 198.72 1119.69 C198.7 1105.49 198.68 1091.29 198.66 1077.09 C198.66 1075.14 198.66 1075.14 198.66 1073.15 C198.63 1052.1 198.61 1031.04 198.6 1009.98 C198.58 988.39 198.55 966.79 198.51 945.19 C198.49 931.86 198.47 918.52 198.47 905.19 C198.47 896.06 198.46 886.93 198.43 877.8 C198.42 872.52 198.42 867.25 198.42 861.98 C198.43 857.15 198.42 852.33 198.4 847.51 C198.39 845.76 198.39 844.01 198.4 842.26 C198.41 839.89 198.4 837.52 198.38 835.15 C198.38 833.84 198.38 832.52 198.38 831.16 C198.24 828.06 198.24 828.06 196.75 826.08 C194.55 824.73 193.21 824.63 190.63 824.63 C189.74 824.62 188.84 824.62 187.91 824.61 C186.93 824.62 185.94 824.63 184.92 824.64 C183.87 824.64 182.82 824.63 181.74 824.63 C178.22 824.63 174.69 824.64 171.16 824.66 C168.64 824.66 166.11 824.66 163.59 824.66 C158.15 824.66 152.71 824.67 147.27 824.68 C139.41 824.71 131.54 824.72 123.68 824.72 C110.92 824.73 98.16 824.75 85.4 824.77 C73 824.8 60.61 824.82 48.21 824.84 C47.06 824.84 47.06 824.84 45.9 824.84 C42.06 824.84 38.23 824.85 34.4 824.85 C2.6 824.88 -29.2 824.93 -61 825 C-62.49 827.98 -62.13 830.67 -62.13 834 C-62.13 834.73 -62.13 835.46 -62.14 836.22 C-62.14 838.7 -62.14 841.18 -62.14 843.66 C-62.14 845.44 -62.14 847.23 -62.15 849.01 C-62.15 853.94 -62.16 858.87 -62.16 863.79 C-62.16 869.1 -62.17 874.4 -62.17 879.71 C-62.18 888.91 -62.19 898.11 -62.2 907.31 C-62.21 921.85 -62.23 936.39 -62.25 950.93 C-62.26 955.91 -62.27 960.88 -62.27 965.85 C-62.28 967.71 -62.28 967.71 -62.28 969.62 C-62.3 983.77 -62.32 997.93 -62.34 1012.08 C-62.34 1013.38 -62.34 1014.67 -62.34 1016 C-62.37 1036.98 -62.39 1057.95 -62.4 1078.92 C-62.42 1100.44 -62.45 1121.96 -62.49 1143.47 C-62.51 1156.75 -62.53 1170.03 -62.53 1183.31 C-62.53 1192.41 -62.54 1201.51 -62.57 1210.62 C-62.58 1215.87 -62.58 1221.12 -62.58 1226.37 C-62.57 1231.18 -62.58 1235.99 -62.6 1240.8 C-62.61 1242.54 -62.61 1244.28 -62.6 1246.02 C-62.55 1262.47 -62.55 1262.47 -66 1270 C-67.32 1271.01 -68.66 1272.01 -70 1273 C-70.33 1275.31 -70.66 1277.62 -71 1280 C-234.35 1280 -397.7 1280 -566 1280 C-566 1033.49 -566 786.98 -566 533 C-563.36 533 -560.72 533 -558 533 C-557.94 532.3 -557.88 531.6 -557.81 530.88 C-556.76 527.13 -554.9 524.52 -552 522 C-550.8 521.53 -549.61 521.05 -548.38 520.56 C-543.93 518.5 -543.76 516.45 -542 512 C-539.74 509.46 -537.36 507.26 -533.93 506.61 C-531.86 506.18 -531.86 506.18 -530.91 504.29 C-530.63 503.6 -530.35 502.9 -530.06 502.19 C-528.32 498.38 -526.65 496.23 -523 494 C-520.19 493.25 -520.19 493.25 -518 493 C-517.66 491.39 -517.66 491.39 -517.31 489.75 C-515.82 485.48 -514.78 484.35 -511 482 C-509.82 481.59 -508.65 481.18 -507.44 480.75 C-503.28 478.63 -502.67 476.98 -500.89 472.86 C-499.18 469.27 -496.57 468.22 -493 466.81 C-489.78 464.87 -489.53 464.39 -488.19 461.12 C-486.21 456.57 -483.57 455.44 -479.23 453.34 C-476.73 451.83 -475.61 450.41 -474 448 C-471.81 444.73 -469.97 443.23 -466.44 441.5 C-462.08 439.35 -460.57 437.11 -458.31 432.91 C-456.78 430.67 -455.36 429.8 -453 428.5 C-449.8 426.73 -448.32 425.27 -446.56 422.06 C-443.87 417.2 -439.88 414.53 -435 412 C-434.34 412 -433.68 412 -433 412 C-432.66 410.89 -432.66 410.89 -432.31 409.75 C-430.71 406.4 -428.99 405.17 -426 403 C-422.82 400.53 -420.34 398.55 -418.19 395.12 C-415.61 391.44 -412.68 389.37 -409.09 386.72 C-406.79 384.99 -406.79 384.99 -405 382 C-403.02 379.03 -401.46 377.7 -398.62 375.62 C-394.74 372.76 -392.26 369.84 -389.52 365.9 C-387.38 363.23 -384.79 361.51 -382 359.56 C-379.87 357.9 -378.28 356.14 -376.56 354.06 C-373.48 350.36 -370.1 347.57 -366.21 344.74 C-363.59 342.68 -361.33 340.39 -359 338 C-355.67 334.67 -352.33 331.33 -349 328 C-348.15 327.13 -347.31 326.26 -346.43 325.36 C-341.66 320.73 -336.76 317.51 -330 317 C-329.66 315.42 -329.66 315.42 -329.31 313.81 C-328.14 309.78 -326.36 307.61 -323 305 C-320.66 304.07 -318.48 303.53 -316 303 C-315.94 302.3 -315.88 301.6 -315.81 300.88 C-314.54 296.37 -311.8 293.16 -307.88 290.62 C-306 290 -306 290 -303 290 C-302.77 289.11 -302.55 288.23 -302.31 287.31 C-300.77 283.43 -299.22 281.65 -296 279 C-294.82 278.57 -293.65 278.13 -292.44 277.69 C-288.24 275.63 -287.67 273.98 -285.89 269.87 C-284.71 267.39 -283.4 266.31 -281 265 C-280.18 264.77 -279.35 264.55 -278.5 264.31 C-275.59 262.79 -275.36 262.03 -274.06 259.12 C-271.9 254.3 -268.81 252.17 -263.94 250.14 C-261.55 248.73 -261.06 247.6 -260 245.06 C-258.46 241.74 -257.3 239.8 -254 238 C-253.15 237.73 -252.31 237.46 -251.44 237.19 C-248.05 235.54 -247.55 233.36 -246 230 C-243.64 227.05 -242.16 226.06 -238.56 224.75 C-234.89 222.95 -234.46 222.53 -232.62 219.19 C-230.22 214.8 -227.22 213 -223.01 210.44 C-220.22 208.44 -219.29 206.12 -218 203 C-215.64 200.05 -214.16 199.06 -210.56 197.75 C-206.86 195.93 -206.42 195.45 -204.56 192.06 C-202.77 188.83 -201.54 187.48 -198.12 186.06 C-193.58 184.15 -191.61 181.18 -188.79 177.23 C-186.97 174.96 -185.21 173.52 -182.81 171.88 C-179.44 169.55 -178.07 167.44 -176.25 163.72 C-174.04 160.68 -170.63 159.31 -167.39 157.53 C-164.44 155.64 -163.08 153.64 -161.27 150.71 C-159.76 148.68 -158.14 147.51 -156.06 146.06 C-152.3 143.43 -150.03 140.53 -147.43 136.8 C-146 135 -146 135 -143.06 133.06 C-140.07 131.05 -138.72 129.48 -136.62 126.62 C-133.76 122.75 -130.85 120.26 -126.91 117.54 C-124.18 115.34 -122.43 112.66 -120.43 109.82 C-118.37 107.21 -115.81 105.73 -113 104 C-110.47 101.6 -108.09 99.09 -105.69 96.56 C-103.51 94.49 -101.43 92.81 -99 91.06 C-95.32 88.37 -92.81 85.57 -90 82 C-88.35 80.31 -86.69 78.65 -85 77 C-83.86 75.82 -83.86 75.82 -82.69 74.62 C-81.8 73.76 -80.91 72.89 -80 72 C-79.44 71.44 -78.87 70.88 -78.29 70.3 C-74.49 66.73 -71.12 64.49 -66.25 62.56 C-62.31 60.92 -60.43 59.88 -58.69 55.94 C-58.42 55.25 -58.16 54.57 -57.89 53.87 C-56.42 50.78 -53.94 49.56 -51 48 C-49.51 47.51 -49.51 47.51 -48 47 C-46.94 45.27 -46.94 45.27 -46.12 43.19 C-44.34 39.4 -42.6 37.28 -39 35 C-38.13 34.71 -37.27 34.42 -36.38 34.12 C-33.03 32.54 -32.57 30.28 -31 27 C-28.1 24.1 -26.34 23.08 -22.31 22.12 C-21.22 21.75 -20.13 21.38 -19 21 C-17.82 18.12 -17.82 18.12 -17 15 C-12.79 10.38 -6.78 8.9 -1 7 C-0.67 4.69 -0.34 2.38 0 0 Z M41 102 C40.36 102.83 39.72 103.65 39.06 104.5 C37 107 37 107 34.25 108.75 C31.3 110.79 29.54 112.55 27.25 115.25 C23.62 119.49 19.66 122.83 15.25 126.23 C12.62 128.3 10.34 130.6 8 133 C4.75 135.93 1.44 138.78 -1.89 141.61 C-2.78 142.36 -2.78 142.36 -3.69 143.12 C-4.26 143.61 -4.83 144.09 -5.43 144.59 C-7.2 146.13 -7.2 146.13 -9.38 148.62 C-11.92 150.93 -13.43 151.64 -16.56 152.81 C-20.2 154.28 -21.6 155.4 -23.19 159 C-23.47 159.69 -23.75 160.38 -24.04 161.1 C-26.06 165.09 -29.95 166.65 -34 168 C-35.05 169.77 -35.05 169.77 -35.88 171.88 C-37.64 175.64 -39.1 177.29 -43 179 C-43.83 179.21 -44.65 179.41 -45.5 179.62 C-48.47 181.26 -48.81 182.32 -50.25 185.31 C-52.65 190.1 -55.22 191.45 -59.94 193.69 C-62.38 195.24 -62.93 196.36 -64 199 C-65.48 202.67 -66.88 203.75 -70.44 205.44 C-74.24 207.26 -75.7 208.68 -77.5 212.5 C-79.74 217.22 -82.26 218.5 -86.87 220.69 C-89.94 222.58 -91.01 225.04 -92.68 228.15 C-94.66 230.92 -97.14 231.77 -100.2 233.08 C-102.91 234.46 -103.8 236.27 -105 239 C-105.27 239.89 -105.54 240.77 -105.81 241.69 C-107 244 -107 244 -109.81 245.06 C-110.86 245.37 -111.92 245.68 -113 246 C-116.4 248.16 -117.76 249.25 -119 253.12 C-120 256 -120 256 -122.25 257.19 C-123.16 257.46 -124.06 257.72 -125 258 C-129.24 259.59 -131.2 261 -133.38 264.88 C-135.21 268.13 -136.73 269.7 -140 271.5 C-143.21 273.27 -144.65 274.7 -146.38 277.94 C-148.87 282.47 -152.2 284.08 -156.65 286.5 C-159.59 288.37 -160.93 290.37 -162.73 293.29 C-164.24 295.32 -165.86 296.49 -167.94 297.94 C-171.69 300.56 -173.96 303.46 -176.57 307.19 C-178.62 309.78 -181.23 311.23 -184 313 C-185.71 314.96 -187.38 316.96 -189 319 C-190.87 321 -192.8 322.83 -194.89 324.59 C-199.35 328.34 -199.35 328.34 -202.81 333 C-205.7 336.96 -209.22 338.77 -213.38 341.27 C-216.76 343.5 -218.6 345.75 -221 349 C-222.65 350.69 -224.31 352.35 -226 354 C-226.72 354.76 -227.44 355.53 -228.19 356.31 C-233.55 361.43 -238.85 366.39 -245.88 369 C-249.06 370.24 -249.06 370.24 -251.13 372.84 C-251.71 374.24 -252.28 375.65 -252.85 377.06 C-254.71 380.19 -257.63 381.11 -260.82 382.65 C-263.94 384.58 -265.16 387.05 -266.89 390.2 C-268.98 393.58 -271.89 394.74 -275.62 395.62 C-278.6 397.35 -278.58 398.28 -279.5 401.5 C-280.74 405.84 -280.74 405.84 -283.38 407.44 C-284.24 407.62 -285.11 407.81 -286 408 C-288.65 408.44 -288.65 408.44 -291 410 C-291.62 411.41 -292.17 412.86 -292.69 414.31 C-293.87 417.4 -294.48 418.69 -297.37 420.39 C-298.26 420.75 -299.15 421.12 -300.06 421.5 C-303.86 423.01 -303.86 423.01 -306.14 426.23 C-306.58 427.83 -306.99 429.43 -307.37 431.05 C-308 433 -308 433 -310.38 434.44 C-311.24 434.62 -312.11 434.81 -313 435 C-315.63 435.52 -315.63 435.52 -318 437 C-318.9 438.77 -318.9 438.77 -319.69 440.81 C-321.39 444.71 -323.05 445.79 -326.94 447.44 C-332.09 449.65 -333.43 451.98 -335.73 456.94 C-337.24 459.4 -338.36 459.93 -341 461 C-344.67 462.48 -345.75 463.88 -347.44 467.44 C-349.71 472.17 -352.24 473.55 -356.88 475.76 C-359.2 477.12 -360.1 478.23 -361.5 480.5 C-363.92 484.41 -366.97 485.79 -370.99 487.82 C-373.69 489.41 -374.67 491.2 -376 494 C-378.91 498.21 -381.48 499.74 -386 502 C-388.17 504.34 -388.17 504.34 -390 507 C-392.93 511.01 -395.83 513.31 -400 516 C-402.24 518.05 -404.05 520.07 -405.88 522.5 C-408 525 -408 525 -410.81 526.75 C-413.83 528.88 -415.34 530.58 -417.5 533.5 C-420.3 537.28 -422.99 539.5 -427 542 C-429.15 544.4 -429.15 544.4 -431 547 C-433.11 549.88 -434.72 551.82 -437.75 553.75 C-440.7 555.79 -442.46 557.55 -444.75 560.25 C-448.38 564.49 -452.34 567.82 -456.74 571.23 C-461.57 575.01 -467.27 579.79 -468.37 586.13 C-468.51 588.73 -468.53 591.3 -468.5 593.9 C-468.5 594.9 -468.51 595.89 -468.51 596.92 C-468.53 600.28 -468.51 603.63 -468.49 606.99 C-468.5 609.42 -468.5 611.84 -468.51 614.27 C-468.52 619.54 -468.52 624.82 -468.5 630.1 C-468.48 637.96 -468.49 645.81 -468.5 653.66 C-468.51 666.87 -468.5 680.08 -468.48 693.29 C-468.47 706.37 -468.46 719.46 -468.46 732.54 C-468.46 733.35 -468.46 734.17 -468.46 735.01 C-468.46 738.31 -468.46 741.61 -468.46 744.91 C-468.46 775.91 -468.44 806.9 -468.41 837.89 C-468.38 865.43 -468.37 892.97 -468.37 920.51 C-468.37 922.27 -468.37 924.04 -468.37 925.81 C-468.37 926.68 -468.37 927.56 -468.37 928.46 C-468.37 932.86 -468.37 937.26 -468.37 941.66 C-468.37 942.52 -468.37 943.39 -468.37 944.29 C-468.37 967.29 -468.36 990.3 -468.35 1013.3 C-468.35 1014.12 -468.35 1014.94 -468.35 1015.78 C-468.35 1019.07 -468.35 1022.36 -468.34 1025.65 C-468.34 1037.1 -468.33 1048.55 -468.33 1060 C-468.33 1074.76 -468.32 1089.52 -468.31 1104.28 C-468.29 1112.08 -468.29 1119.89 -468.29 1127.69 C-468.29 1133.52 -468.29 1139.34 -468.27 1145.17 C-468.27 1147.53 -468.27 1149.89 -468.27 1152.25 C-468.28 1155.45 -468.27 1158.65 -468.26 1161.85 C-468.26 1162.77 -468.27 1163.69 -468.27 1164.64 C-468.26 1165.5 -468.26 1166.36 -468.25 1167.24 C-468.25 1167.97 -468.25 1168.71 -468.25 1169.46 C-467.9 1173.03 -466.87 1176.51 -466 1180 C-367.66 1180 -269.32 1180 -168 1180 C-165.14 1174.28 -164.88 1168.91 -164.87 1162.59 C-164.86 1161.34 -164.86 1160.09 -164.85 1158.8 C-164.85 1157.43 -164.85 1156.05 -164.86 1154.67 C-164.85 1153.2 -164.85 1151.73 -164.84 1150.26 C-164.83 1146.23 -164.83 1142.19 -164.83 1138.16 C-164.82 1133.8 -164.82 1129.44 -164.81 1125.09 C-164.79 1117.54 -164.78 1110 -164.77 1102.45 C-164.76 1091.52 -164.74 1080.59 -164.71 1069.66 C-164.67 1051.91 -164.64 1034.15 -164.61 1016.4 C-164.61 1015.33 -164.6 1014.27 -164.6 1013.18 C-164.57 998.11 -164.55 983.05 -164.53 967.99 C-164.53 966.4 -164.53 966.4 -164.52 964.78 C-164.52 963.72 -164.52 962.66 -164.52 961.57 C-164.49 943.89 -164.46 926.21 -164.42 908.53 C-164.39 897.64 -164.37 886.75 -164.36 875.85 C-164.36 868.38 -164.34 860.9 -164.32 853.43 C-164.31 849.12 -164.3 844.82 -164.3 840.51 C-164.3 836.56 -164.29 832.61 -164.28 828.66 C-164.27 827.24 -164.27 825.82 -164.28 824.4 C-164.33 797.45 -164.33 797.45 -159 787 C-158.19 786.26 -157.37 785.52 -156.54 784.76 C-153.59 781.56 -152.77 778.65 -151.75 774.56 C-150.33 769.58 -149.06 766.29 -144.44 763.56 C-143.65 763.15 -142.87 762.75 -142.06 762.32 C-139.6 760.74 -139.06 759.56 -138 756.88 C-136.93 754.27 -136.45 753.25 -133.94 751.88 C-132.34 751.29 -130.74 750.7 -129.13 750.12 C-126.54 748.76 -126.15 747.76 -125 745.12 C-122.48 740.31 -118.59 739.43 -113.69 737.88 C-112.92 737.64 -112.16 737.4 -111.37 737.16 C-106.35 735.57 -102.78 733.75 -98.74 730.32 C-89.68 723.44 -75.37 724.85 -64.66 724.87 C-63.47 724.86 -62.27 724.86 -61.04 724.86 C-57.76 724.85 -54.47 724.85 -51.19 724.85 C-47.63 724.85 -44.08 724.85 -40.52 724.84 C-33.57 724.84 -26.61 724.83 -19.66 724.83 C-14 724.83 -8.35 724.83 -2.69 724.83 C13.38 724.82 29.45 724.81 45.51 724.81 C46.38 724.81 47.24 724.81 48.13 724.81 C49 724.81 49.87 724.81 50.76 724.81 C64.78 724.82 78.81 724.81 92.83 724.79 C107.26 724.78 121.69 724.77 136.12 724.77 C144.2 724.77 152.29 724.77 160.38 724.76 C167.27 724.75 174.16 724.75 181.05 724.75 C184.55 724.76 188.06 724.76 191.57 724.75 C233.35 724.66 233.35 724.66 242.62 733.5 C245.68 736.26 248.99 736.97 252.94 738 C259.81 739.8 264.42 741.66 268.87 747.43 C271.04 750.05 273.19 751.77 275.94 753.75 C282.55 758.95 285.36 764.34 287.5 772.38 C288.49 776.23 288.49 776.23 291.5 778.81 C292.74 779.4 292.74 779.4 294 780 C300.74 787.99 299.29 801.52 299.27 811.28 C299.27 812.81 299.27 814.33 299.28 815.86 C299.29 820.03 299.29 824.2 299.29 828.37 C299.29 832.87 299.3 837.38 299.31 841.88 C299.32 849.69 299.33 857.49 299.34 865.29 C299.34 876.58 299.36 887.87 299.38 899.17 C299.42 917.51 299.45 935.85 299.47 954.2 C299.47 955.29 299.47 956.39 299.47 957.52 C299.48 965.31 299.49 973.09 299.5 980.88 C299.51 989.76 299.52 998.65 299.53 1007.54 C299.53 1009.18 299.53 1009.18 299.54 1010.86 C299.56 1029.13 299.59 1047.41 299.62 1065.68 C299.65 1076.94 299.66 1088.2 299.67 1099.47 C299.67 1107.18 299.68 1114.9 299.7 1122.62 C299.71 1127.07 299.71 1131.52 299.71 1135.97 C299.71 1140.05 299.72 1144.13 299.73 1148.21 C299.73 1149.68 299.73 1151.15 299.73 1152.62 C299.71 1161.54 300.08 1170.25 302 1179 C303.64 1180.64 305.51 1180.13 307.77 1180.13 C308.81 1180.13 309.85 1180.13 310.92 1180.13 C312.07 1180.13 313.23 1180.13 314.42 1180.13 C316.24 1180.13 316.24 1180.13 318.11 1180.13 C321.5 1180.14 324.89 1180.13 328.28 1180.13 C331.93 1180.13 335.58 1180.13 339.24 1180.13 C346.4 1180.14 353.56 1180.14 360.72 1180.14 C366.53 1180.13 372.35 1180.13 378.17 1180.13 C379.41 1180.13 379.41 1180.13 380.67 1180.13 C382.35 1180.13 384.03 1180.13 385.71 1180.14 C401.47 1180.14 417.22 1180.13 432.98 1180.13 C446.52 1180.12 460.05 1180.13 473.58 1180.13 C489.28 1180.14 504.98 1180.14 520.68 1180.13 C522.35 1180.13 524.03 1180.13 525.7 1180.13 C526.93 1180.13 526.93 1180.13 528.19 1180.13 C534.01 1180.13 539.82 1180.13 545.63 1180.14 C552.71 1180.14 559.79 1180.14 566.87 1180.13 C570.49 1180.13 574.1 1180.13 577.72 1180.13 C581.63 1180.14 585.54 1180.13 589.45 1180.13 C590.61 1180.13 591.76 1180.13 592.95 1180.13 C593.99 1180.13 595.03 1180.13 596.1 1180.13 C597.46 1180.13 597.46 1180.13 598.84 1180.13 C601.05 1180.14 601.05 1180.14 603 1179 C605.88 1172.38 606.43 1165.79 606.38 1158.67 C606.39 1157.18 606.39 1157.18 606.39 1155.66 C606.41 1152.34 606.4 1149.01 606.39 1145.69 C606.39 1143.28 606.4 1140.86 606.4 1138.45 C606.42 1133.22 606.42 1127.98 606.41 1122.74 C606.4 1114.95 606.41 1107.17 606.42 1099.38 C606.44 1085.47 606.44 1071.56 606.44 1057.65 C606.43 1045.47 606.43 1033.3 606.44 1021.13 C606.44 1019.49 606.44 1017.86 606.44 1016.23 C606.44 1013.77 606.44 1011.31 606.45 1008.84 C606.46 985.97 606.46 963.09 606.45 940.21 C606.45 939.35 606.45 938.49 606.45 937.6 C606.45 930.6 606.45 923.6 606.45 916.59 C606.43 889.28 606.44 861.96 606.47 834.64 C606.49 803.95 606.51 773.25 606.5 742.56 C606.5 739.28 606.5 736.01 606.5 732.74 C606.5 731.53 606.5 731.53 606.5 730.3 C606.49 718.13 606.5 705.97 606.51 693.8 C606.53 679.97 606.53 666.14 606.51 652.3 C606.5 644.56 606.5 636.82 606.52 629.08 C606.53 623.3 606.52 617.52 606.51 611.75 C606.5 609.41 606.51 607.07 606.52 604.73 C606.53 601.55 606.52 598.38 606.5 595.2 C606.51 594.29 606.52 593.38 606.53 592.44 C606.47 586.94 605.46 582.92 602.96 578 C602 576 602 576 601.5 573.82 C601.16 571.77 601.16 571.77 598.89 570.8 C598.02 570.45 597.15 570.11 596.25 569.75 C592.39 567.99 590.51 566.82 588.62 563 C586.01 558 581.97 556.96 576.88 555.07 C572.23 553.34 568.98 551.6 566.31 547.25 C563.35 543.08 559.71 540.84 555.54 537.95 C552.56 535.67 551.03 533.12 549 530 C547.57 528.99 546.11 528.04 544.62 527.12 C541.25 525.03 539.19 523.18 537 519.88 C534.8 516.63 533.18 515.4 529.5 514.06 C525.52 512.59 524.12 511.1 522 507.44 C519.83 503.7 518.44 502.4 514.25 501.25 C513.09 500.96 513.09 500.96 511.91 500.66 C510 500 510 500 508.62 497.62 C508.42 496.76 508.21 495.89 508 495 C506.32 491.17 504.88 489.81 501.12 488.25 C497.44 486.62 496.29 485.15 494.62 481.5 C492.69 477.47 491.04 476.14 486.88 474.5 C485.26 473.97 483.64 473.47 482 473 C481.01 472.67 480.02 472.34 479 472 C479 471.34 479 470.68 479 470 C474.47 465.09 468.99 461.6 463.2 458.36 C460.13 456.46 458.39 454.7 456.62 451.56 C454.76 448.62 452.79 447.06 450 445 C445.2 441.43 445.2 441.43 444.06 439 C442.2 435.49 438.65 433.85 435.19 432.07 C431.94 430.38 430.14 429.22 428.19 426.06 C425.81 422.74 424.64 422.2 421 420.62 C416.2 418.46 414.94 416.65 413.06 411.87 C411.13 408.46 407.61 407.19 404 406 C403.34 406 402.68 406 402 406 C401.9 405.41 401.8 404.82 401.7 404.21 C400.48 399.07 400.48 399.07 396.75 395.57 C394.97 394.8 393.19 394.05 391.41 393.31 C388.66 391.81 387.98 390.76 386.62 388 C384 383 379.97 381.96 374.88 380.07 C369.94 378.23 366.6 376.08 363.75 371.69 C361.04 367.55 357.38 365.39 353.3 362.7 C350.25 360.44 348.86 358.28 347 355 C345.08 352.65 343.86 351.94 341 350.69 C338 349 338 349 336.56 346.06 C334.49 342.01 331.99 340.92 328 339 C324.3 337.19 322.48 335.4 320.19 332.06 C317.49 328.24 314.99 326.7 310.76 324.86 C307.48 323.26 306.32 320.68 304.81 317.5 C302.87 314.81 302.07 314.47 299.12 313.25 C295.44 311.62 294.29 310.15 292.62 306.5 C290.72 302.55 289.26 301.29 285.12 299.81 C284.26 299.53 283.39 299.25 282.5 298.96 C277.8 297.16 274.53 293.63 271.14 290.01 C268.81 287.82 266.46 286.4 263.69 284.81 C258.85 281.82 255.94 278.75 252.7 274.14 C250.42 271.26 247.75 269.39 244.7 267.39 C243 266 243 266 242.11 264.04 C240.54 261.16 238.46 260.28 235.62 258.69 C229.57 255.03 229.57 255.03 227.88 251.31 C225.52 247.15 223.49 246.62 219.18 244.96 C215.09 243.16 212.67 240.27 210.62 236.38 C208.37 233.08 205.63 232.53 202 231 C199.58 228.51 198.21 226.79 197.31 223.44 C195.71 220.45 194.85 220.39 191.75 219.25 C187.72 217.69 186.2 216.24 184.06 212.5 C181.27 207.75 178.63 206.7 173.53 205.02 C168.22 202.88 164.44 198.51 160.56 194.44 C158.25 192.24 156.12 190.75 153.44 189.06 C149.48 186.52 147.48 184.03 145 180 C143.04 178.29 141.04 176.62 139 175 C136.83 172.95 135.08 171.12 133.44 168.62 C130.87 165.86 128.78 164.75 125.44 163.06 C120.58 160.57 119.39 158.88 117 154 C114.78 152.76 114.78 152.76 112.19 151.69 C107.06 149.4 105.26 146.82 102.5 142.06 C100.8 139.72 99.59 139.07 96.94 138 C93.27 136.51 92.27 135.08 90.62 131.5 C88.72 127.55 87.26 126.29 83.12 124.81 C82.26 124.53 81.39 124.25 80.5 123.96 C75.8 122.16 72.56 118.64 69.14 115.05 C66.77 112.78 64.27 110.99 61.56 109.12 C58.32 106.82 55.53 104.75 53.12 101.56 C51.21 98.88 51.21 98.88 48.5 97.88 C44.89 98.06 43.56 99.51 41 102 Z " fill="#B9B9B9" transform="translate(566,0)"/>
</svg>
