<?xml version="1.0" encoding="UTF-8"?>
<!-- Generator: visioncortex VTracer 0.6.3 -->
<svg version="1.1" xmlns="http://www.w3.org/2000/svg" width="1280" height="1280">
<path d="M0 0 C401.61 0 803.22 0 1217 0 C1217 2.31 1217 4.62 1217 7 C1217.6 7.16 1218.21 7.32 1218.83 7.48 C1224.04 9 1227.08 10.17 1230 15 C1230.45 16.01 1230.91 17.02 1231.38 18.06 C1233.36 21.65 1235.56 22.85 1239 25 C1241.92 28.2 1242.97 31.5 1244.19 35.62 C1244.53 36.77 1244.88 37.92 1245.23 39.1 C1246 42 1246 42 1246 44 C1248.31 44 1250.62 44 1253 44 C1253 432.74 1253 821.48 1253 1222 C1250.69 1222 1248.38 1222 1246 1222 C1245.89 1222.62 1245.78 1223.23 1245.67 1223.87 C1242.65 1240 1242.65 1240 1237.94 1244 C1235 1246 1235 1246 1233 1247 C1232.44 1248.36 1231.92 1249.74 1231.44 1251.12 C1229.39 1255.95 1226.66 1258.33 1222.41 1261.3 C1219.87 1263.02 1219.87 1263.02 1217.32 1265.46 C1214.01 1268.23 1210.57 1269.38 1206.39 1270.28 C1205.66 1270.45 1204.92 1270.61 1204.16 1270.78 C1195.05 1272.62 1185.96 1272.55 1176.71 1272.5 C1174.7 1272.5 1172.69 1272.51 1170.69 1272.52 C1165.19 1272.53 1159.7 1272.52 1154.2 1272.51 C1148.22 1272.5 1142.23 1272.51 1136.24 1272.52 C1125.76 1272.53 1115.28 1272.53 1104.79 1272.52 C1093.55 1272.5 1082.3 1272.5 1071.06 1272.51 C1070.35 1272.51 1069.64 1272.51 1068.9 1272.51 C1066.01 1272.51 1063.11 1272.51 1060.21 1272.51 C1033.25 1272.53 1006.28 1272.53 979.32 1272.51 C953.33 1272.5 927.35 1272.49 901.37 1272.5 C899.73 1272.5 898.1 1272.5 896.47 1272.5 C889.9 1272.5 883.34 1272.5 876.78 1272.5 C858.44 1272.5 840.09 1272.5 821.75 1272.5 C820.91 1272.5 820.08 1272.5 819.22 1272.5 C792.61 1272.5 766 1272.49 739.38 1272.48 C738.52 1272.48 737.66 1272.48 736.77 1272.48 C722.76 1272.48 708.74 1272.47 694.73 1272.47 C639.16 1272.44 583.59 1272.44 528.03 1272.45 C524.51 1272.45 521 1272.45 517.49 1272.45 C516.62 1272.45 515.76 1272.45 514.86 1272.45 C505.25 1272.45 495.63 1272.45 486.02 1272.45 C485.16 1272.45 484.29 1272.45 483.4 1272.45 C437.66 1272.46 391.91 1272.46 346.16 1272.45 C339.6 1272.44 333.04 1272.44 326.48 1272.44 C324.04 1272.44 321.59 1272.44 319.15 1272.44 C301.27 1272.44 283.4 1272.43 265.52 1272.44 C264.72 1272.44 263.91 1272.44 263.08 1272.44 C259.03 1272.44 254.98 1272.44 250.93 1272.44 C221.62 1272.44 192.31 1272.44 163.01 1272.42 C160.12 1272.42 157.22 1272.41 154.33 1272.41 C153.27 1272.41 153.27 1272.41 152.18 1272.41 C140.98 1272.4 129.77 1272.41 118.56 1272.41 C107.52 1272.42 96.48 1272.41 85.45 1272.4 C79.55 1272.39 73.65 1272.39 67.76 1272.4 C62.38 1272.41 57.01 1272.4 51.63 1272.39 C49.71 1272.38 47.79 1272.38 45.86 1272.39 C36.2 1272.43 26.73 1272.06 17.15 1270.73 C16.33 1270.62 15.51 1270.51 14.67 1270.4 C9.32 1269.56 5.49 1268.06 1 1265 C0.13 1263.58 0.13 1263.58 -0.75 1262.12 C-3.23 1258.69 -4.62 1258.1 -8.38 1256.38 C-15.12 1253 -17.54 1247.93 -20 1241 C-20 1240.34 -20 1239.68 -20 1239 C-22.31 1239 -24.62 1239 -27 1239 C-27 839.04 -27 439.08 -27 27 C-23.54 26.51 -23.54 26.51 -20 26 C-17.84 23.8 -17.84 23.8 -16.25 20.94 C-12.64 15.45 -8.82 12.4 -3.22 9.05 C-0.2 6.7 -0.2 6.7 0 0 Z M64 101 C63.9 103.44 63.87 105.85 63.88 108.3 C63.88 109.07 63.88 109.84 63.88 110.64 C63.88 113.25 63.88 115.85 63.89 118.46 C63.89 120.33 63.89 122.19 63.89 124.05 C63.89 129.12 63.89 134.19 63.9 139.27 C63.9 144.56 63.91 149.85 63.91 155.15 C63.91 165.18 63.92 175.22 63.93 185.25 C63.94 196.67 63.94 208.09 63.95 219.51 C63.96 243.01 63.98 266.5 64 290 C76.12 298.4 91.2 297.29 105.35 297.26 C107.18 297.26 109.01 297.27 110.84 297.27 C115.86 297.28 120.88 297.28 125.9 297.28 C131.37 297.27 136.84 297.28 142.3 297.29 C151.88 297.3 161.46 297.31 171.03 297.31 C185.27 297.3 199.51 297.32 213.75 297.33 C240.66 297.35 267.57 297.36 294.48 297.37 C297.44 297.37 300.41 297.37 303.38 297.37 C304.11 297.37 304.85 297.37 305.61 297.37 C321.92 297.37 338.24 297.38 354.55 297.38 C361.27 297.39 368 297.39 374.72 297.39 C375.83 297.39 375.83 297.39 376.97 297.39 C419.5 297.41 462.04 297.42 504.57 297.42 C506.16 297.42 507.75 297.42 509.34 297.42 C516.53 297.42 523.71 297.42 530.89 297.42 C534.1 297.43 537.3 297.43 540.5 297.43 C542.11 297.43 543.71 297.43 545.31 297.43 C596.05 297.43 646.79 297.45 697.53 297.49 C735.38 297.51 773.23 297.54 811.08 297.55 C812.22 297.55 812.22 297.55 813.39 297.55 C830.1 297.55 846.81 297.55 863.52 297.55 C869.5 297.55 875.48 297.55 881.45 297.55 C882.94 297.55 884.43 297.55 885.92 297.55 C909.64 297.55 933.36 297.57 957.08 297.59 C981.62 297.62 1006.16 297.62 1030.7 297.61 C1044.86 297.6 1059.02 297.6 1073.18 297.63 C1082.62 297.65 1092.06 297.64 1101.5 297.63 C1106.89 297.62 1112.28 297.62 1117.67 297.64 C1122.57 297.65 1127.46 297.65 1132.35 297.63 C1134.12 297.62 1135.89 297.63 1137.66 297.64 C1140.04 297.66 1142.43 297.64 1144.81 297.62 C1145.51 297.64 1146.2 297.65 1146.91 297.66 C1149.06 297.68 1149.06 297.68 1152 297 C1155.34 292.98 1155.43 289.16 1155.38 284.12 C1155.39 283.34 1155.39 282.55 1155.4 281.74 C1155.41 279.11 1155.4 276.47 1155.39 273.84 C1155.39 271.95 1155.4 270.06 1155.4 268.17 C1155.42 263.04 1155.41 257.92 1155.4 252.79 C1155.4 247.43 1155.4 242.07 1155.41 236.7 C1155.41 227.7 1155.41 218.7 1155.39 209.7 C1155.37 199.28 1155.38 188.87 1155.4 178.45 C1155.41 169.51 1155.41 160.58 1155.4 151.64 C1155.4 146.3 1155.4 140.96 1155.41 135.62 C1155.42 130.6 1155.41 125.58 1155.39 120.56 C1155.39 118.72 1155.39 116.87 1155.4 115.03 C1155.41 112.52 1155.4 110.01 1155.38 107.5 C1155.39 106.76 1155.39 106.02 1155.4 105.26 C1155.41 103.02 1155.41 103.02 1155 100 C1151.41 97.61 1148.87 97.72 1144.73 97.75 C1143.6 97.75 1143.6 97.75 1142.45 97.74 C1139.91 97.73 1137.36 97.74 1134.82 97.75 C1132.98 97.75 1131.14 97.74 1129.3 97.74 C1124.21 97.73 1119.12 97.74 1114.02 97.74 C1108.5 97.75 1102.97 97.74 1097.45 97.74 C1087.75 97.73 1078.05 97.73 1068.35 97.73 C1054.61 97.74 1040.86 97.74 1027.11 97.73 C1002.18 97.72 977.25 97.72 952.32 97.73 C951.58 97.73 950.84 97.73 950.08 97.73 C948.97 97.73 948.97 97.73 947.83 97.73 C925.29 97.73 902.75 97.73 880.21 97.73 C878.71 97.73 877.2 97.73 875.69 97.73 C869.63 97.73 863.57 97.73 857.51 97.73 C840.57 97.73 823.63 97.73 806.68 97.73 C805.91 97.73 805.14 97.73 804.35 97.73 C779.75 97.73 755.15 97.73 730.56 97.73 C729.36 97.73 729.36 97.73 728.14 97.73 C715.18 97.73 702.22 97.74 689.26 97.74 C637.87 97.75 586.48 97.75 535.09 97.74 C522.14 97.74 509.19 97.73 496.24 97.73 C495.05 97.73 495.05 97.73 493.83 97.73 C469.27 97.73 444.7 97.73 420.14 97.73 C419.37 97.73 418.59 97.73 417.8 97.73 C400.87 97.73 383.95 97.73 367.02 97.73 C360.96 97.73 354.91 97.73 348.85 97.73 C347.34 97.73 345.84 97.73 344.33 97.73 C321.8 97.73 299.27 97.73 276.74 97.73 C275.63 97.73 275.63 97.73 274.5 97.73 C273.39 97.73 273.39 97.73 272.27 97.73 C247.4 97.72 222.54 97.72 197.67 97.73 C183.33 97.74 168.99 97.74 154.65 97.73 C145.07 97.73 135.5 97.73 125.93 97.74 C120.47 97.74 115.01 97.75 109.55 97.74 C104.59 97.73 99.63 97.74 94.66 97.75 C92.87 97.75 91.09 97.75 89.3 97.74 C75.8 96.75 75.8 96.75 64 101 Z M64 410 C64 659.48 64 908.96 64 1166 C70.16 1168.31 73.74 1169.44 79.92 1169.37 C81.06 1169.38 81.06 1169.38 82.23 1169.39 C84.77 1169.4 87.32 1169.39 89.86 1169.37 C91.71 1169.38 93.57 1169.38 95.42 1169.39 C100.52 1169.4 105.63 1169.39 110.74 1169.38 C116.28 1169.37 121.83 1169.38 127.38 1169.39 C137.11 1169.4 146.84 1169.39 156.57 1169.38 C170.36 1169.37 184.15 1169.37 197.94 1169.38 C222.96 1169.39 247.97 1169.39 272.98 1169.38 C297.08 1169.37 321.19 1169.36 345.29 1169.36 C346.8 1169.36 348.32 1169.36 349.83 1169.36 C355.91 1169.36 361.99 1169.36 368.07 1169.36 C385.06 1169.37 402.06 1169.37 419.05 1169.36 C419.83 1169.36 420.6 1169.36 421.4 1169.36 C446.06 1169.36 470.72 1169.36 495.39 1169.35 C496.19 1169.35 496.99 1169.35 497.81 1169.35 C510.81 1169.34 523.8 1169.34 536.79 1169.34 C588.34 1169.32 639.89 1169.31 691.44 1169.32 C694.69 1169.32 697.95 1169.32 701.21 1169.32 C702.02 1169.32 702.82 1169.32 703.65 1169.32 C712.57 1169.32 721.49 1169.32 730.42 1169.32 C731.62 1169.32 731.62 1169.32 732.84 1169.32 C776 1169.32 819.15 1169.32 862.31 1169.31 C863.83 1169.31 865.35 1169.31 866.88 1169.31 C867.63 1169.31 868.38 1169.31 869.15 1169.31 C870.67 1169.31 872.19 1169.31 873.7 1169.31 C877.48 1169.31 881.26 1169.31 885.04 1169.31 C901.62 1169.3 918.2 1169.3 934.78 1169.3 C935.9 1169.3 935.9 1169.3 937.04 1169.3 C940.81 1169.3 944.57 1169.3 948.34 1169.3 C975.52 1169.31 1002.7 1169.3 1029.88 1169.29 C1044.27 1169.28 1058.65 1169.27 1073.04 1169.28 C1082.64 1169.28 1092.23 1169.28 1101.82 1169.27 C1107.3 1169.26 1112.78 1169.26 1118.25 1169.27 C1123.22 1169.27 1128.2 1169.27 1133.17 1169.26 C1134.97 1169.26 1136.76 1169.26 1138.56 1169.26 C1140.98 1169.27 1143.41 1169.26 1145.83 1169.25 C1146.54 1169.26 1147.24 1169.26 1147.97 1169.27 C1151.93 1169.34 1151.93 1169.34 1155 1167 C1155.3 1164.66 1155.3 1164.66 1155.25 1161.9 C1155.26 1160.81 1155.26 1159.72 1155.27 1158.6 C1155.26 1157.39 1155.26 1156.18 1155.25 1154.94 C1155.25 1153.66 1155.26 1152.38 1155.26 1151.06 C1155.27 1147.48 1155.26 1143.9 1155.26 1140.33 C1155.25 1136.44 1155.26 1132.56 1155.26 1128.67 C1155.27 1121.86 1155.27 1115.04 1155.27 1108.23 C1155.26 1098.09 1155.26 1087.96 1155.27 1077.83 C1155.28 1059.73 1155.28 1041.63 1155.27 1023.54 C1155.27 1007.7 1155.27 991.86 1155.27 976.03 C1155.27 974.98 1155.27 973.93 1155.27 972.85 C1155.27 968.59 1155.27 964.33 1155.27 960.07 C1155.28 920.1 1155.27 880.13 1155.26 840.16 C1155.25 804.62 1155.25 769.08 1155.26 733.54 C1155.27 693.65 1155.28 653.75 1155.27 613.86 C1155.27 609.61 1155.27 605.36 1155.27 601.11 C1155.27 600.06 1155.27 599.02 1155.27 597.94 C1155.26 582.11 1155.27 566.28 1155.27 550.45 C1155.28 532.46 1155.28 514.46 1155.27 496.47 C1155.26 486.39 1155.26 476.31 1155.27 466.23 C1155.27 459.51 1155.27 452.79 1155.26 446.06 C1155.26 442.23 1155.25 438.39 1155.26 434.55 C1155.27 430.43 1155.26 426.31 1155.25 422.19 C1155.26 420.98 1155.26 419.77 1155.27 418.53 C1155.26 416.89 1155.26 416.89 1155.25 415.22 C1155.25 414.28 1155.25 413.34 1155.25 412.36 C1155.16 409.73 1155.16 409.73 1153 407 C1150.64 406.54 1150.64 406.54 1147.84 406.62 C1146.19 406.61 1146.19 406.61 1144.5 406.6 C1142.66 406.61 1142.66 406.61 1140.79 406.62 C1139.49 406.61 1138.19 406.6 1136.86 406.6 C1133.23 406.59 1129.6 406.59 1125.97 406.6 C1122.03 406.6 1118.09 406.59 1114.15 406.58 C1107.22 406.57 1100.3 406.56 1093.37 406.57 C1083.06 406.57 1072.75 406.56 1062.44 406.54 C1045.02 406.51 1027.61 406.5 1010.2 406.5 C992.78 406.49 975.35 406.48 957.93 406.46 C956.3 406.46 956.3 406.46 954.63 406.46 C949.09 406.45 943.55 406.45 938.01 406.44 C898.58 406.4 859.16 406.37 819.74 406.35 C782.1 406.33 744.45 406.3 706.81 406.26 C704.51 406.26 702.2 406.26 699.9 406.26 C689.56 406.25 679.22 406.24 668.88 406.23 C644.95 406.2 621.01 406.18 597.08 406.16 C595.96 406.16 594.84 406.16 593.68 406.15 C558.96 406.12 524.25 406.1 489.53 406.08 C487.32 406.08 485.12 406.08 482.91 406.08 C465.56 406.07 448.22 406.07 430.87 406.06 C377.56 406.04 324.25 405.99 270.94 405.88 C258.54 405.85 246.13 405.83 233.73 405.81 C232.94 405.81 232.16 405.81 231.35 405.81 C223.61 405.8 215.87 405.79 208.13 405.78 C204.4 405.77 200.68 405.77 196.95 405.76 C196.22 405.76 195.49 405.76 194.74 405.76 C183.28 405.74 171.82 405.71 160.36 405.67 C149.24 405.64 138.12 405.62 127.01 405.61 C121.14 405.61 115.27 405.6 109.41 405.57 C104.13 405.54 98.86 405.53 93.58 405.54 C91.69 405.54 89.8 405.53 87.91 405.52 C85.35 405.5 82.8 405.51 80.25 405.52 C79.52 405.51 78.8 405.49 78.05 405.48 C71.96 405.55 70.08 406.96 64 410 Z " fill="#B9B9B9" transform="translate(27,0)"/>
</svg>
